<svg xmlns="http://www.w3.org/2000/svg" xmlns:xlink="http://www.w3.org/1999/xlink" viewBox="0,0,256,256" width="50px" height="50px" fill-rule="nonzero"><g transform="translate(51.2,51.2) scale(0.6,0.6)"><g fill-opacity="0" fill="#e96a2b" fill-rule="nonzero" stroke="none" stroke-width="1" stroke-linecap="butt" stroke-linejoin="miter" stroke-miterlimit="10" stroke-dasharray="" stroke-dashoffset="0" font-family="none" font-weight="none" font-size="none" text-anchor="none" style="mix-blend-mode: normal"><path d="M-85.33333,341.33333v-426.66667h426.66667v426.66667z" id="bgRectangle"></path></g><g fill-opacity="0.72941" fill="#375659" fill-rule="nonzero" stroke="none" stroke-width="1" stroke-linecap="butt" stroke-linejoin="miter" stroke-miterlimit="10" stroke-dasharray="" stroke-dashoffset="0" font-family="none" font-weight="none" font-size="none" text-anchor="none" style="mix-blend-mode: normal"><path d="M128,341.33333c-117.82075,0 -213.33333,-95.51259 -213.33333,-213.33333v0c0,-117.82075 95.51259,-213.33333 213.33333,-213.33333h0c117.82075,0 213.33333,95.51259 213.33333,213.33333v0c0,117.82075 -95.51259,213.33333 -213.33333,213.33333z" id="shape"></path></g><g fill="#fcc419" fill-rule="nonzero" stroke="none" stroke-width="1" stroke-linecap="butt" stroke-linejoin="miter" stroke-miterlimit="10" stroke-dasharray="" stroke-dashoffset="0" font-family="none" font-weight="none" font-size="none" text-anchor="none" style="mix-blend-mode: normal"><g transform="scale(5.12,5.12)"><path d="M9.8125,0c-0.47656,0.08984 -0.82031,0.51172 -0.8125,1v2c-0.00391,0.35938 0.18359,0.69531 0.49609,0.87891c0.3125,0.17969 0.69531,0.17969 1.00781,0c0.3125,-0.18359 0.5,-0.51953 0.49609,-0.87891v-1h35v23h-4.09375l1.09375,-2l-1.09375,-2h-8.90625v4h-11c-0.03125,0 -0.0625,0 -0.09375,0c-0.55078,0.02734 -0.98047,0.49609 -0.95312,1.04688c0.02734,0.55078 0.49609,0.98047 1.04688,0.95313h26v1h-26c-0.35937,-0.00391 -0.69531,0.18359 -0.87891,0.49609c-0.17969,0.3125 -0.17969,0.69531 0,1.00781c0.18359,0.3125 0.51953,0.5 0.87891,0.49609h27c0.55078,0 1,-0.44922 1,-1v-3c0,-0.55078 -0.44922,-1 -1,-1h-1v-24c0,-0.55078 -0.44922,-1 -1,-1h-37c-0.03125,0 -0.0625,0 -0.09375,0c-0.03125,0 -0.0625,0 -0.09375,0zM12,5c-3.30078,0 -6,2.69922 -6,6c0,3.30078 2.69922,6 6,6c3.30078,0 6,-2.69922 6,-6c0,-3.30078 -2.69922,-6 -6,-6zM12,17h-2.3125c-0.75391,0 -1.85156,0.09375 -2.875,0.78125c-1.02344,0.6875 -1.8125,2.01172 -1.8125,3.90625v10.75c-1.75781,0.77734 -3,2.52734 -3,4.5625c0,1.51563 0.70703,2.86328 1.78125,3.78125c-2.23828,1.17188 -3.78125,3.53516 -3.78125,6.21875v2c0,0.55078 0.44922,1 1,1h12c0.03125,0 0.0625,0 0.09375,0h23.90625c0.03125,0 0.0625,0 0.09375,0h11.90625c0.55078,0 1,-0.44922 1,-1v-2c0,-2.68359 -1.54297,-5.04687 -3.78125,-6.21875c1.07422,-0.91797 1.78125,-2.26562 1.78125,-3.78125c0,-2.75 -2.25,-5 -5,-5c-2.75,0 -5,2.25 -5,5c0,1.51563 0.70703,2.86328 1.78125,3.78125c-1.14062,0.59766 -2.11719,1.52734 -2.78125,2.625c-0.66797,-1.11328 -1.62891,-2.01953 -2.78125,-2.625c1.07422,-0.91797 1.78125,-2.26562 1.78125,-3.78125c0,-2.75 -2.25,-5 -5,-5c-2.75,0 -5,2.25 -5,5c0,1.51563 0.70703,2.86328 1.78125,3.78125c-1.14062,0.59766 -2.11719,1.52734 -2.78125,2.625c-0.66797,-1.10547 -1.62891,-2.02344 -2.78125,-2.625c1.07422,-0.91797 1.78125,-2.26562 1.78125,-3.78125c0,-2.40625 -1.72656,-4.4375 -4,-4.90625v-9.09375l4.28125,-1.53125l0.03125,-0.03125c0.00781,-0.00391 0.02344,0.00391 0.03125,0c0.85156,-0.25781 1.55078,-0.71484 2.03125,-1.34375h0.03125l5,-6.46875c0,-0.01172 0,-0.01953 0,-0.03125c0.92188,-1.22656 0.78125,-3.03906 -0.5,-4c-0.61328,-0.46094 -1.36719,-0.64062 -2.09375,-0.5625c-0.72656,0.07813 -1.42578,0.42188 -1.90625,1.0625l-4.28125,5.53125l-6.625,1.375zM12,7c2.22266,0 4,1.77734 4,4c0,2.22266 -1.77734,4 -4,4c-2.22266,0 -4,-1.77734 -4,-4c0,-2.22266 1.77734,-4 4,-4zM29.03125,11.03125c0.21875,-0.02734 0.46875,0.01563 0.65625,0.15625c0.3125,0.23438 0.37891,0.8125 0.125,1.1875c-0.00781,0.00781 0.00781,0.02344 0,0.03125l-5,6.46875c0,0.01172 0,0.01953 0,0.03125c-0.10937,0.14453 -0.58594,0.48047 -1.09375,0.625c-0.01953,0.00781 -0.04297,0.01953 -0.0625,0.03125l-5,1.78125c-0.40625,0.14844 -0.66797,0.53906 -0.65625,0.96875v9.78125c-2.27344,0.46875 -4,2.5 -4,4.90625c0,1.51563 0.70703,2.86328 1.78125,3.78125c-1.14062,0.59766 -2.11719,1.52734 -2.78125,2.625c-0.66797,-1.11328 -1.62891,-2.01953 -2.78125,-2.625c1.07422,-0.91797 1.78125,-2.26562 1.78125,-3.78125c0,-2.75 -2.25,-5 -5,-5v-10.3125c0,-1.40625 0.40625,-1.91406 0.90625,-2.25c0.5,-0.33594 1.23438,-0.4375 1.78125,-0.4375h6.3125c0.07422,-0.00391 0.14844,-0.01172 0.21875,-0.03125l7.1875,-1.5c0.23047,-0.04297 0.44141,-0.16406 0.59375,-0.34375l4.5,-5.8125c0.12109,-0.16016 0.3125,-0.25391 0.53125,-0.28125zM7,34c1.66797,0 3,1.33203 3,3c0,1.66797 -1.33203,3 -3,3c-1.66797,0 -3,-1.33203 -3,-3c0,-1.35156 0.875,-2.49609 2.09375,-2.875c0.05859,-0.01953 0.12891,-0.01562 0.1875,-0.03125c0.04297,-0.00781 0.08594,-0.01953 0.125,-0.03125c0.19531,-0.03906 0.38672,-0.0625 0.59375,-0.0625zM31,34c1.66797,0 3,1.33203 3,3c0,1.66797 -1.33203,3 -3,3c-1.66797,0 -3,-1.33203 -3,-3c0,-1.66797 1.33203,-3 3,-3zM43,34c1.66797,0 3,1.33203 3,3c0,1.66797 -1.33203,3 -3,3c-1.66797,0 -3,-1.33203 -3,-3c0,-1.66797 1.33203,-3 3,-3zM18.75,34.03125c0.01172,0 0.01953,0 0.03125,0c0.13281,0.02734 0.27344,0.02734 0.40625,0c0.01172,0 0.01953,0 0.03125,0c1.55859,0.11719 2.78125,1.37891 2.78125,2.96875c0,1.66797 -1.33203,3 -3,3c-1.66797,0 -3,-1.33203 -3,-3c0,-1.58203 1.20703,-2.83984 2.75,-2.96875zM7,42c2.75391,0 5,2.24609 5,5v1h-10v-1c0,-2.75391 2.24609,-5 5,-5zM19,42c2.75391,0 5,2.24609 5,5v1h-10v-1c0,-2.75391 2.24609,-5 5,-5zM31,42c2.75391,0 5,2.24609 5,5v1h-10v-1c0,-2.75391 2.24609,-5 5,-5zM43,42c2.75391,0 5,2.24609 5,5v1h-10v-1c0,-2.75391 2.24609,-5 5,-5z"></path></g></g></g></svg>