<svg xmlns="http://www.w3.org/2000/svg" xmlns:xlink="http://www.w3.org/1999/xlink" viewBox="0,0,256,256" width="64px" height="64px" fill-rule="nonzero"><g fill="#523759" fill-rule="nonzero" stroke="none" stroke-width="1" stroke-linecap="butt" stroke-linejoin="miter" stroke-miterlimit="10" stroke-dasharray="" stroke-dashoffset="0" font-family="none" font-weight="none" font-size="none" text-anchor="none" style="mix-blend-mode: normal"><path d="M128,256c-70.69245,0 -128,-57.30755 -128,-128v0c0,-70.69245 57.30755,-128 128,-128v0c70.69245,0 128,57.30755 128,128v0c0,70.69245 -57.30755,128 -128,128z" id="shape"></path></g><g fill="none" fill-rule="nonzero" stroke="none" stroke-width="1" stroke-linecap="butt" stroke-linejoin="miter" stroke-miterlimit="10" stroke-dasharray="" stroke-dashoffset="0" font-family="none" font-weight="none" font-size="none" text-anchor="none" style="mix-blend-mode: normal"><g><circle cx="128" cy="128" r="107.777" fill-opacity="0" fill="#68aa9a"></circle><path d="M125.804,102.923c1.401,0.609 2.992,0.609 4.393,0l26.164,-11.376c2.011,-0.874 3.312,-2.858 3.312,-5.052v-23.126h-63.345v23.126c0,2.193 1.301,4.177 3.312,5.052z" fill="#5eacb8"></path><path d="M125.752,77.462c1.43,0.639 3.065,0.639 4.496,0l41.585,-18.588c4.347,-1.943 4.347,-8.114 0,-10.057l-41.585,-18.588c-1.43,-0.64 -3.065,-0.64 -4.496,0l-41.584,18.587c-4.347,1.943 -4.347,8.114 0,10.057z" fill="#8dc8d8"></path><path d="M133.336,50.25c0,-1.608 -2.389,-2.911 -5.336,-2.911c-2.947,0 -5.336,1.303 -5.336,2.911c0,1.608 2.389,2.911 5.336,2.911c2.947,0 5.336,-1.304 5.336,-2.911z" fill="#7eb7c4"></path><path d="M88.655,84.484v-23.151l39.687,-10.171c0.737,-0.188 1.182,-0.938 0.992,-1.675c-0.188,-0.737 -0.939,-1.183 -1.676,-0.992l-40.722,10.435c-0.61,0.156 -1.035,0.705 -1.035,1.333v24.221c0,0.761 0.617,1.377 1.377,1.377c0.76,0.001 1.377,-0.616 1.377,-1.377z" fill="#7eb7c4"></path><path d="M88.84,88.042c1.521,0 2.754,-1.233 2.754,-2.754v-5.323c0,-2.384 -1.933,-4.316 -4.316,-4.316c-2.384,0 -4.317,1.933 -4.317,4.316v5.323c0,1.521 1.233,2.754 2.754,2.754z" fill="#8dc8d8"></path><g><path d="M59.298,152.67c-0.933,0 -1.872,-0.252 -2.722,-0.768c-0.987,-0.599 -1.708,-1.556 -2.147,-2.624l-8.122,-19.764c-1.089,-2.649 0.176,-5.68 2.826,-6.769v0c2.649,-1.089 5.68,0.176 6.769,2.826l5.824,14.173l13.456,-8.69l5.595,8.742l-18.665,12.046c-0.849,0.546 -1.827,0.828 -2.814,0.828z" fill="#fedbb0"></path><path d="M69.345,147.173l11.432,-7.378l-5.595,-8.741l-10.845,7.003z" fill="#16d620"></path><path d="M128.042,235.777c-0.147,-0.401 -0.347,-0.791 -0.6,-1.159l-19.302,-28.039l-6.526,-34.314l-10.191,1.938l6.73,35.387c0.135,0.707 0.415,1.379 0.823,1.972l16.145,23.453c4.223,0.503 8.521,0.762 12.879,0.762c0.014,0 0.028,0 0.042,0z" fill="#b2b0ad"></path><path d="M78.299,168.258l-23.173,28.62c-1.023,1.264 -1.394,2.934 -1.003,4.512l1.636,6.592c4.13,3.732 8.55,7.149 13.223,10.213l-4.168,-16.797l21.547,-26.613z" fill="#b2b0ad"></path><path d="M100.812,144.275l-5.862,-8.558l20.595,-14.108l9.116,-12.005c1.732,-2.281 4.986,-2.726 7.268,-0.994v0c2.281,1.732 2.726,4.986 0.994,7.268l-9.624,12.673c-0.336,0.443 -0.741,0.828 -1.199,1.142z" fill="#fedbb0"></path><path d="M100.812,144.275l15.441,-10.577l-6.214,-8.318l-15.09,10.337z" fill="#16d620"></path><rect x="75.182" y="131.054" width="26.853" height="49.011" fill="#b2b0ad"></rect><circle cx="88.608" cy="108.61" r="13.426" fill="#fedbb0"></circle><g><path d="M196.051,155.056c0.706,0 1.414,-0.144 2.079,-0.435l13.755,-6.021c2.624,-1.149 3.82,-4.207 2.672,-6.831v0c-1.149,-2.624 -4.207,-3.821 -6.832,-2.672l-11.202,4.903l-16.324,-10.536l-5.625,8.716l18.665,12.046c0.85,0.55 1.828,0.83 2.812,0.83z" fill="#fedbb0"></path><path d="M137.443,235.368c3.797,-0.33 7.538,-0.856 11.213,-1.569l15.782,-56.327l-9.989,-2.799z" fill="#fedbb0"></path><path d="M170.112,176.402l-7.503,34.155l6.993,16.897c3.207,-1.343 6.336,-2.837 9.376,-4.472l-5.538,-13.381l6.804,-30.973z" fill="#fedbb0"></path><path d="M154.56,146.862l5.862,-8.558l-20.173,-13.818l-6.864,-13.835c-1.273,-2.566 -4.385,-3.614 -6.952,-2.341v0c-2.566,1.273 -3.614,4.385 -2.341,6.951l7.464,15.045c0.394,0.794 0.984,1.473 1.715,1.974z" fill="#fedbb0"></path><rect x="-180.204" y="-178.854" transform="rotate(-180)" width="26.853" height="45.391" fill="#16d620"></rect><circle cx="166.777" cy="111.018" r="13.426" fill="#fedbb0"></circle><g fill="#16d620"><path d="M139.647,191.839l46.523,7.174c3.2,0.493 5.707,-2.705 4.464,-5.695l-19.99,-48.058l-33.538,39.803c-2.086,2.477 -0.659,6.283 2.541,6.776z"></path></g></g></g><path d="M207.038,48.962c-21.112,-21.112 -49.181,-32.739 -79.038,-32.739c-29.857,0 -57.926,11.627 -79.038,32.739c-21.112,21.112 -32.739,49.181 -32.739,79.038c0,29.857 11.627,57.926 32.739,79.038c21.112,21.112 49.181,32.739 79.038,32.739c29.857,0 57.926,-11.627 79.038,-32.739c21.112,-21.112 32.739,-49.181 32.739,-79.038c0,-29.857 -11.627,-57.926 -32.739,-79.038zM128,235.777c-59.524,0 -107.777,-48.253 -107.777,-107.777c0,-59.524 48.253,-107.777 107.777,-107.777c59.524,0 107.777,48.253 107.777,107.777c0,59.524 -48.253,107.777 -107.777,107.777z" fill-opacity="0" fill="#e96a2b"></path></g></g></svg>