<svg xmlns="http://www.w3.org/2000/svg" xmlns:xlink="http://www.w3.org/1999/xlink" viewBox="0,0,256,256" width="64px" height="64px" fill-rule="nonzero"><g transform="translate(38.4,38.4) scale(0.7,0.7)"><g fill-opacity="0.72941" fill="#375659" fill-rule="nonzero" stroke="none" stroke-width="1" stroke-linecap="butt" stroke-linejoin="miter" stroke-miterlimit="10" stroke-dasharray="" stroke-dashoffset="0" font-family="none" font-weight="none" font-size="none" text-anchor="none" style="mix-blend-mode: normal"><path d="M128,310.85714c-100.98921,0 -182.85714,-81.86793 -182.85714,-182.85714v0c0,-100.98921 81.86793,-182.85714 182.85714,-182.85714v0c100.98921,0 182.85714,81.86793 182.85714,182.85714v0c0,100.98921 -81.86793,182.85714 -182.85714,182.85714z" id="shape"></path></g><g fill="none" fill-rule="nonzero" stroke="none" stroke-width="1" stroke-linecap="butt" stroke-linejoin="miter" stroke-miterlimit="10" stroke-dasharray="" stroke-dashoffset="0" font-family="none" font-weight="none" font-size="none" text-anchor="none" style="mix-blend-mode: normal"><g transform="scale(4,4)"><path d="M40.634,40.103l-4.634,4.054v0l-2,1.75l-6.963,6.093h16.982c-1.261,-1.674 -2.019,-3.747 -2.019,-6c0,-5.514 4.486,-10 10,-10c3.273,0 6.175,1.588 8,4.025v-28.025l-8,-8h-32v14c2.769,0 5.098,1.887 5.787,4.441c1.306,0.659 2.213,1.999 2.213,3.559v4.556c1.19,0.694 2,1.97 2,3.444v0.764c0,1.525 -0.847,2.896 -2.211,3.578l-1.86,0.93c-0.193,1.25 -0.775,2.403 -1.687,3.314l-1.38,1.38c0.351,-0.065 0.68,-0.223 0.952,-0.461l6.186,-5.413v0l2,-1.75v-1.342c0,-1.654 1.346,-3 3,-3c0.672,0 1.287,0.23 1.788,0.605c0.387,-0.124 0.789,-0.202 1.2,-0.202c2.212,0.001 4.012,1.797 4.012,4.005v0.685c0,1.153 -0.498,2.25 -1.366,3.01z" fill-opacity="0.72941" fill="#375659"></path><path d="M52,4v8h8z" fill="#d2d2d2"></path><path d="M32,39l4.683,-4.098c1.293,-1.131 3.317,-0.213 3.317,1.506v0.685c0,0.577 -0.249,1.125 -0.683,1.505l-7.317,6.402z" fill="#f0c8a0"></path><path d="M12,46v-4.343h8v4.343l-4,4z" fill="#d2aa82"></path><path d="M25.131,45.01c-0.729,0.638 -1.665,0.99 -2.634,0.99h-2.497l-4,4l-4,-4l-6.894,3.447c-0.678,0.339 -1.106,1.032 -1.106,1.789v8.764h20v-6.185c0,-1.154 0.498,-2.251 1.366,-3.01l6.634,-5.805v-6z" fill="#505050"></path><path d="M26,32h-2v-6c0,-1.105 -0.895,-2 -2,-2h-12c-1.105,0 -2,0.895 -2,2v6h-2c-1.105,0 -2,0.895 -2,2v0.764c0,0.758 0.428,1.45 1.106,1.789l2.894,1.447v0.343c0,1.061 0.421,2.078 1.172,2.828l1.657,1.657c0.75,0.75 1.768,1.172 2.828,1.172h4.686c1.061,0 2.078,-0.421 2.828,-1.172l1.657,-1.657c0.75,-0.75 1.172,-1.768 1.172,-2.828v-0.343l2.894,-1.447c0.678,-0.339 1.106,-1.032 1.106,-1.789v-0.764c0,-1.105 -0.895,-2 -2,-2z" fill="#f0c8a0"></path><path d="M26,34v0c-2.209,0 -4,-1.791 -4,-4v-6h2c1.105,0 2,0.895 2,2z" fill="#dc9600"></path><path d="M20,20h-8c-3.314,0 -6,2.686 -6,6v4c0,1.105 0.895,2 2,2h5.029c3.183,0 6.235,-1.264 8.485,-3.515l1.314,-1.314c0.75,-0.75 1.172,-1.768 1.172,-2.828v-0.343c0,-2.209 -1.791,-4 -4,-4z" fill="#fab400"></path><path d="M14,34.5h-4c-0.276,0 -0.5,-0.224 -0.5,-0.5c0,-0.276 0.224,-0.5 0.5,-0.5h4c0.276,0 0.5,0.224 0.5,0.5c0,0.276 -0.224,0.5 -0.5,0.5z" fill="#be7800"></path><path d="M16,40.5c-0.668,0 -1.296,-0.26 -1.768,-0.732l-0.586,-0.585c-0.195,-0.195 -0.195,-0.512 0,-0.707c0.195,-0.195 0.512,-0.195 0.707,0l0.586,0.585c0.566,0.566 1.555,0.566 2.121,0l0.586,-0.585c0.195,-0.195 0.512,-0.195 0.707,0c0.195,0.195 0.195,0.512 0,0.707l-0.586,0.585c-0.471,0.472 -1.099,0.732 -1.767,0.732z" fill="#be7800"></path><circle cx="13" cy="35" r="1" fill="#be7800"></circle><path d="M22,34.5h-4c-0.276,0 -0.5,-0.224 -0.5,-0.5c0,-0.276 0.224,-0.5 0.5,-0.5h4c0.276,0 0.5,0.224 0.5,0.5c0,0.276 -0.224,0.5 -0.5,0.5z" fill="#be7800"></path><circle cx="19" cy="35" r="1" fill="#be7800"></circle><path d="M34,38h2v-3c0,-0.552 -0.448,-1 -1,-1v0c-0.552,0 -1,0.448 -1,1z" fill="#f0c8a0"></path><path d="M9.106,49.447l4.228,-2.114l-1.334,-1.333l-6.894,3.447c-0.678,0.339 -1.106,1.032 -1.106,1.789v8.764h4v-8.764c0,-0.757 0.428,-1.45 1.106,-1.789z" fill="#3c3c3c"></path><path d="M12,46v6l4,4l4,-4v-6l-4,4z" fill-opacity="0.72941" fill="#375659"></path><path d="M18,52l-2,-2l-2,2l1,1l-1,1l2,2l2,-2l-1,-1z" fill="#fa6450"></path><path d="M15,55v5h2v-5l-1,1z" fill="#3c3c3c"></path><path d="M24,4h-4v14c1.543,0 2.938,0.6 4,1.562z" fill="#d2d2d2"></path><path d="M34,37.25l-2,1.75v6l2,-1.75z" fill-opacity="0.72941" fill="#375659"></path><path d="M48,50v10l4,-4l4,4v-10z" fill="#fa6450"></path><path d="M48,50v10l2,-2v-8z" fill="#dc4632"></path><circle cx="52" cy="46" r="8" fill="#3cc8b4"></circle><path d="M46,46c0,-4.079 3.055,-7.438 7,-7.931c-0.328,-0.041 -0.661,-0.069 -1,-0.069c-4.418,0 -8,3.582 -8,8c0,4.418 3.582,8 8,8c0.339,0 0.672,-0.028 1,-0.069c-3.945,-0.493 -7,-3.852 -7,-7.931z" fill="#1eaa96"></path><path d="M57,44l-6,6l-4,-4l2,-2l2,2l4,-4z" fill-opacity="0.72941" fill="#375659"></path><rect x="34" y="14" width="12" height="2" fill="#fa6450"></rect><rect x="28" y="18" width="24" height="2" fill="#d2d2d2"></rect><rect x="28" y="22" width="24" height="2" fill="#d2d2d2"></rect><rect x="28" y="26" width="24" height="2" fill="#d2d2d2"></rect><path d="M52,32v-2h-24v0.556c0.599,0.35 1.102,0.848 1.453,1.444h5.547z" fill="#d2d2d2"></path><path d="M41.173,34c0.433,0.569 0.709,1.252 0.786,2h10.041v-2z" fill="#d2d2d2"></path><path d="M32.184,34h-2.184v0.764c0,0.429 -0.074,0.843 -0.201,1.236h2.201v-1c0,-0.352 0.072,-0.686 0.184,-1z" fill="#d2d2d2"></path></g></g></g></svg>