<?xml version="1.0" standalone="no"?>
<!DOCTYPE svg PUBLIC "-//W3C//DTD SVG 20010904//EN"
 "http://www.w3.org/TR/2001/REC-SVG-20010904/DTD/svg10.dtd">
<svg version="1.0" xmlns="http://www.w3.org/2000/svg"
 width="1249.000000pt" height="1280.000000pt" viewBox="0 0 1249.000000 1280.000000"
 preserveAspectRatio="xMidYMid meet">
<metadata>
Created by potrace 1.15, written by Peter Selinger 2001-2017
</metadata>
<g transform="translate(0.000000,1280.000000) scale(0.100000,-0.100000)"
fill="#000000" stroke="none">
<path d="M6130 12515 c-47 -8 -101 -19 -120 -25 -19 -6 -42 -13 -51 -15 -30
-6 -123 -48 -151 -67 -14 -10 -29 -18 -32 -18 -4 0 -12 -5 -19 -10 -7 -6 -37
-29 -67 -52 -405 -309 -463 -925 -124 -1308 68 -76 62 -71 129 -120 33 -25 63
-49 67 -55 4 -5 8 -6 8 -2 0 5 12 0 28 -11 32 -23 125 -66 167 -77 43 -12 47
-13 81 -23 23 -7 36 -7 45 1 7 7 -2 -7 -19 -30 -54 -70 -190 -191 -285 -253
l-90 -60 -76 68 c-42 38 -83 73 -91 77 -21 13 39 -61 89 -110 23 -21 41 -43
41 -47 0 -4 -40 -28 -90 -53 -49 -25 -90 -49 -90 -53 0 -5 34 -17 75 -27 41
-11 75 -22 75 -25 0 -4 -14 -19 -31 -36 -50 -47 -59 -73 -12 -36 22 17 46 38
53 47 7 8 21 15 32 15 33 0 121 -47 161 -86 56 -55 71 -89 71 -166 0 -58 -5
-77 -38 -141 -49 -97 -137 -206 -272 -338 -130 -126 -473 -401 -492 -394 -7 3
-11 1 -8 -4 5 -8 -111 -95 -266 -200 -53 -35 -60 -51 -24 -51 27 0 195 -47
211 -59 5 -5 23 -11 39 -15 78 -19 196 -125 215 -193 33 -117 -5 -226 -138
-403 -211 -281 -590 -589 -1286 -1045 -115 -76 -212 -140 -214 -142 -14 -11
25 -23 109 -33 155 -18 156 -19 118 -73 l-22 -32 25 23 c14 12 36 22 49 22 13
0 35 -10 49 -22 l26 -23 -24 27 c-31 36 -22 44 31 29 131 -39 244 -125 288
-217 20 -44 22 -59 17 -154 -4 -91 -10 -116 -41 -194 -69 -166 -247 -414 -474
-659 -199 -216 -911 -867 -947 -867 -6 0 -29 18 -50 40 -54 55 -67 51 -16 -5
22 -24 41 -49 41 -54 0 -5 -32 -35 -70 -66 -79 -64 -90 -91 -36 -82 43 7 51
-1 29 -27 -14 -17 -12 -16 9 2 23 21 32 23 85 17 105 -13 331 -74 406 -109 91
-44 170 -122 187 -187 7 -24 10 -76 8 -116 -14 -220 -294 -547 -848 -992 -69
-55 -136 -106 -150 -113 -14 -7 -29 -18 -35 -24 -28 -31 -246 -185 -565 -399
-386 -259 -394 -265 -382 -277 4 -4 57 -17 117 -27 238 -43 277 -52 390 -86
206 -63 328 -141 359 -232 21 -61 20 -77 -8 -145 -98 -238 -647 -579 -1600
-993 -101 -44 -131 -53 -142 -44 -12 9 -13 9 -9 -3 6 -16 -14 -26 -140 -73
-56 -21 -87 -46 -73 -60 10 -10 51 -13 358 -20 157 -3 332 -8 390 -10 230 -9
1137 -12 1505 -4 581 12 1149 36 1495 62 134 11 454 53 965 128 82 12 286 54
387 79 46 12 110 28 143 35 33 8 87 23 119 34 33 12 61 21 63 21 1 0 3 -65 3
-145 l0 -145 33 -14 c73 -30 181 -40 437 -40 257 0 363 9 438 39 l38 16 -4
146 c-4 125 -2 145 10 141 105 -41 550 -146 708 -168 36 -5 173 -25 305 -44
326 -47 611 -82 690 -85 11 0 126 -7 255 -15 534 -34 1727 -62 2195 -52 160 3
412 9 560 12 149 3 279 7 290 9 12 2 104 5 205 5 101 1 192 6 202 11 27 14 11
35 -40 54 -49 18 -354 146 -361 151 -2 2 2 11 10 20 13 16 12 16 -9 5 -18 -9
-31 -9 -67 4 -25 8 -56 22 -68 30 -12 8 -54 27 -92 43 -236 98 -563 267 -823
426 -412 250 -574 442 -508 599 34 82 177 172 351 222 77 22 360 82 478 100
20 3 37 11 37 18 0 7 -44 41 -96 77 -53 36 -98 68 -101 73 -2 4 1 16 8 25 13
16 12 16 -7 0 -19 -17 -28 -12 -270 150 -303 203 -483 333 -484 350 0 6 -7 12
-16 12 -39 0 -428 324 -630 525 -188 187 -271 291 -337 423 -50 100 -51 106
-52 190 0 77 3 92 27 134 36 60 85 101 173 143 109 52 310 101 466 113 52 4
94 11 93 17 0 6 -46 48 -103 94 l-102 84 28 31 28 31 -31 -28 -31 -28 -109 91
c-200 169 -658 598 -791 742 -285 309 -473 593 -512 776 -15 74 -14 160 4 213
40 116 187 217 380 258 43 10 245 40 268 41 4 0 7 6 7 13 0 6 -46 41 -101 76
l-100 63 27 29 c34 35 21 39 -15 5 l-26 -24 -70 45 c-140 91 -572 400 -669
478 -55 44 -123 98 -150 121 -196 157 -422 407 -490 543 -29 56 -56 145 -56
181 0 57 30 128 73 172 72 74 263 155 399 171 15 2 30 6 34 10 4 4 20 -5 36
-20 46 -44 32 -15 -22 44 -62 68 -63 89 -7 151 72 80 75 89 8 29 -83 -74 -103
-75 -175 -7 -71 67 -80 64 -17 -6 51 -55 67 -92 35 -80 -17 7 -93 60 -253 180
-381 285 -648 557 -713 728 -26 70 -24 163 5 211 25 40 95 102 128 112 13 5
33 -3 57 -21 l37 -27 -28 30 c-35 38 -34 39 98 74 55 14 100 30 100 36 0 6
-47 35 -105 65 -177 93 -277 162 -389 271 -53 52 -150 165 -112 131 20 -18
151 16 261 68 105 50 317 232 335 288 3 11 10 20 15 20 11 0 74 129 105 215
14 38 32 120 40 182 14 101 14 122 0 225 -21 150 -74 289 -153 403 -38 53
-155 174 -210 215 -109 81 -284 148 -445 170 -92 12 -97 12 -207 -5z m1560
-3651 c0 -2 -9 0 -20 6 -11 6 -20 13 -20 16 0 2 9 0 20 -6 11 -6 20 -13 20
-16z m-5212 -7532 c2 -7 -3 -12 -12 -12 -9 0 -16 7 -16 16 0 17 22 14 28 -4z
m7552 3 c0 -8 -7 -15 -15 -15 -16 0 -20 12 -8 23 11 12 23 8 23 -8z m-2140
-25 c0 -5 -2 -10 -4 -10 -3 0 -8 5 -11 10 -3 6 -1 10 4 10 6 0 11 -4 11 -10z
m-2910 -50 c0 -5 -2 -10 -4 -10 -3 0 -8 5 -11 10 -3 6 -1 10 4 10 6 0 11 -4
11 -10z m-3450 -24 c0 -3 -4 -8 -10 -11 -5 -3 -10 -1 -10 4 0 6 5 11 10 11 6
0 10 -2 10 -4z m1740 -6 c0 -5 -5 -10 -11 -10 -5 0 -7 5 -4 10 3 6 8 10 11 10
2 0 4 -4 4 -10z m7700 0 c0 -5 -2 -10 -4 -10 -3 0 -8 5 -11 10 -3 6 -1 10 4
10 6 0 11 -4 11 -10z m-6415 -20 c18 -19 17 -20 -7 -20 -30 0 -38 7 -31 26 7
19 17 18 38 -6z m3413 -3 c3 -12 -4 -17 -23 -17 -23 0 -25 2 -15 21 13 23 33
21 38 -4z m-5383 -16 c-9 -16 -25 -3 -18 15 4 10 9 12 15 6 6 -6 7 -15 3 -21z
m1226 16 c-1 -12 -15 -9 -19 4 -3 6 1 10 8 8 6 -3 11 -8 11 -12z m1269 4 c0
-6 -4 -13 -10 -16 -5 -3 -10 1 -10 9 0 9 5 16 10 16 6 0 10 -4 10 -9z m665 -1
c3 -5 1 -10 -4 -10 -6 0 -11 5 -11 10 0 6 2 10 4 10 3 0 8 -4 11 -10z m1679
-7 c10 -25 -8 -37 -34 -23 -21 11 -21 12 -3 25 24 19 30 18 37 -2z m-3784 -14
c0 -5 -7 -9 -15 -9 -15 0 -20 12 -9 23 8 8 24 -1 24 -14z m6280 5 c0 -9 -5
-14 -12 -12 -18 6 -21 28 -4 28 9 0 16 -7 16 -16z m-7650 -20 c0 -8 -7 -14
-15 -14 -17 0 -18 2 -9 24 7 18 24 12 24 -10z m2840 21 c0 -2 -10 -10 -22 -16
-21 -11 -22 -11 -9 4 13 16 31 23 31 12z m3760 -5 c0 -5 -4 -10 -9 -10 -6 0
-13 5 -16 10 -3 6 1 10 9 10 9 0 16 -4 16 -10z m1370 -16 c0 -8 -4 -14 -10
-14 -5 0 -10 9 -10 21 0 11 5 17 10 14 6 -3 10 -13 10 -21z m-7100 2 c0 -3 -4
-8 -10 -11 -5 -3 -10 -1 -10 4 0 6 5 11 10 11 6 0 10 -2 10 -4z m1800 -33 c0
-20 -3 -24 -11 -16 -7 7 -9 19 -6 27 10 24 17 19 17 -11z m-244 -4 c19 -21 19
-21 -6 -18 -14 2 -26 12 -28 22 -5 23 11 22 34 -4z m3121 -4 c-4 -8 -14 -15
-24 -15 -15 0 -16 2 -3 10 8 5 11 10 5 10 -5 0 -3 4 5 10 18 11 24 6 17 -15z
m-3617 6 c0 -6 -4 -13 -10 -16 -5 -3 -10 1 -10 9 0 9 5 16 10 16 6 0 10 -4 10
-9z m4110 -11 c0 -5 -7 -7 -15 -4 -8 4 -12 10 -9 15 6 11 24 2 24 -11z m-4500
-32 c0 -15 -28 -9 -34 8 -11 30 -6 37 14 19 11 -10 20 -22 20 -27z m1755 32
c3 -5 1 -10 -4 -10 -6 0 -11 5 -11 10 0 6 2 10 4 10 3 0 8 -4 11 -10z m1370 0
c3 -5 1 -10 -4 -10 -6 0 -11 5 -11 10 0 6 2 10 4 10 3 0 8 -4 11 -10z m625 0
c0 -5 -5 -10 -11 -10 -5 0 -7 5 -4 10 3 6 8 10 11 10 2 0 4 -4 4 -10z m1150
-21 c-6 -10 -18 -19 -26 -19 -15 0 -13 10 9 37 14 19 29 5 17 -18z m-5715 1
c3 -5 1 -10 -4 -10 -6 0 -11 5 -11 10 0 6 2 10 4 10 3 0 8 -4 11 -10z m336 -3
c-1 -12 -15 -9 -19 4 -3 6 1 10 8 8 6 -3 11 -8 11 -12z m5839 -2 c0 -8 -4 -15
-10 -15 -5 0 -10 7 -10 15 0 8 5 15 10 15 6 0 10 -7 10 -15z m330 5 c0 -5 -5
-10 -11 -10 -5 0 -7 5 -4 10 3 6 8 10 11 10 2 0 4 -4 4 -10z m-5820 -30 c0
-10 -57 -40 -77 -40 -24 0 -14 15 25 36 36 20 52 21 52 4z m5205 -24 c17 -13
17 -15 4 -16 -33 0 -89 30 -83 45 5 13 9 13 32 1 15 -8 36 -21 47 -30z m-6431
19 c-4 -8 -8 -15 -10 -15 -2 0 -4 7 -4 15 0 8 4 15 10 15 5 0 7 -7 4 -15z
m761 4 c12 -19 -5 -23 -22 -6 -16 16 -16 17 -1 17 9 0 20 -5 23 -11z m6070 -9
c-20 -23 -29 -21 -19 4 3 9 13 16 22 16 13 0 12 -3 -3 -20z m-7205 -1 c0 -5 5
-7 10 -4 6 3 10 2 10 -4 0 -19 -37 -32 -64 -21 -42 16 -30 37 22 39 12 1 22
-4 22 -10z m1825 -19 c-5 -8 -11 -8 -17 -2 -6 6 -7 16 -3 22 5 8 11 8 17 2 6
-6 7 -16 3 -22z m882 2 c-16 -15 -19 -15 -27 -2 -7 11 -4 16 13 21 30 8 34 2
14 -19z m280 3 c16 -16 6 -26 -16 -15 -9 5 -24 11 -34 14 -10 3 -15 11 -12 16
8 12 43 3 62 -15z m2413 10 c0 -9 -9 -15 -23 -15 -13 0 -28 -5 -35 -12 -13
-13 -16 0 -4 18 6 10 26 19 55 23 4 0 7 -6 7 -14z m250 -4 c0 -16 -14 -20 -27
-10 -19 17 -16 28 7 22 11 -3 20 -9 20 -12z m880 -1 c0 -14 -15 -19 -29 -10
-17 10 -5 31 14 23 8 -3 15 -9 15 -13z m1844 14 c21 -8 20 -21 -3 -34 -14 -7
-28 -7 -47 0 -26 10 -26 11 -8 25 21 16 35 18 58 9z m-5059 -14 c3 -5 -3 -10
-14 -10 -12 0 -21 5 -21 10 0 6 6 10 14 10 8 0 18 -4 21 -10z m1723 -1 c-2 -6
-8 -10 -13 -10 -5 0 -11 4 -13 10 -2 6 4 11 13 11 9 0 15 -5 13 -11z m3692 7
c0 -3 -4 -8 -10 -11 -5 -3 -10 -1 -10 4 0 6 5 11 10 11 6 0 10 -2 10 -4z
m-7540 -26 c0 -5 -4 -10 -9 -10 -6 0 -13 5 -16 10 -3 6 1 10 9 10 9 0 16 -4
16 -10z m5970 0 c0 -5 -7 -10 -16 -10 -8 0 -12 5 -9 10 3 6 10 10 16 10 5 0 9
-4 9 -10z m-5152 -23 l22 -23 -29 -33 c-28 -31 -29 -32 -36 -11 -8 25 2 90 14
90 4 0 17 -10 29 -23z m4352 -32 c0 -37 -3 -42 -19 -38 -10 2 -24 15 -31 29
-12 21 -10 25 11 43 31 25 39 19 39 -34z m-6691 26 c11 -7 10 -13 -5 -35 -21
-28 -37 -29 -42 -2 -8 39 15 57 47 37z m834 -16 c-10 -7 -20 -12 -21 -10 -7 7
23 33 31 28 5 -3 0 -11 -10 -18z m8195 -16 c-4 -31 -20 -33 -41 -4 -18 25 -18
25 5 34 28 11 41 1 36 -30z m-8460 19 c19 -19 14 -28 -10 -24 -13 3 -26 5 -30
5 -5 1 -8 8 -8 16 0 18 31 20 48 3z m562 -2 c0 -5 7 -3 15 4 20 17 19 1 -2
-22 -19 -22 -41 -25 -23 -3 8 9 9 15 2 15 -6 0 -14 -5 -17 -10 -4 -7 -13 -7
-26 0 -29 16 -23 27 16 26 19 -1 35 -5 35 -10z m1380 -1 c0 -8 -7 -15 -15 -15
-16 0 -20 12 -8 23 11 12 23 8 23 -8z m1061 0 c1 -15 -60 -30 -73 -17 -5 5 -7
15 -3 21 8 14 74 10 76 -4z m1914 -5 c0 -11 -10 -15 -33 -13 -36 1 -47 7 -39
20 10 16 72 9 72 -7z m1015 5 c0 -8 -4 -15 -9 -15 -13 0 -22 16 -14 24 11 11
23 6 23 -9z m1426 2 c2 -2 -7 -12 -22 -22 -22 -14 -30 -15 -50 -5 -45 25 -38
40 17 36 27 -2 52 -6 55 -9z m-7246 -7 c0 -5 -2 -10 -4 -10 -3 0 -8 5 -11 10
-3 6 -1 10 4 10 6 0 11 -4 11 -10z m2460 -7 c0 -16 -44 -73 -56 -73 -18 0 -18
14 1 30 8 7 15 20 15 30 0 9 3 19 6 23 7 6 34 -2 34 -10z m2740 -5 c0 -12 10
-32 22 -45 28 -30 3 -31 -29 -1 -22 21 -30 48 -16 61 13 13 23 7 23 -15z
m-3020 -3 c0 -9 11 -21 25 -27 31 -14 33 -38 2 -38 -14 0 -29 10 -40 29 -21
36 -22 51 -2 51 8 0 15 -7 15 -15z m476 4 c10 -17 -13 -36 -27 -22 -12 12 -4
33 11 33 5 0 12 -5 16 -11z m2342 -12 c2 -10 -3 -17 -12 -17 -10 0 -16 9 -16
21 0 24 23 21 28 -4z m475 6 c-15 -42 -43 -71 -63 -66 -26 7 -26 8 13 48 35
37 60 46 50 18z m-6780 -19 c-5 -15 -16 -18 -26 -8 -10 11 4 33 18 28 8 -3 11
-12 8 -20z m10262 16 c11 -17 -5 -32 -21 -19 -8 6 -14 15 -14 20 0 12 27 11
35 -1z m-8698 -22 c13 -12 23 -25 23 -30 0 -11 -38 -10 -45 2 -3 6 -18 10 -32
10 l-25 0 23 20 c30 24 28 24 56 -2z m7163 -16 c-17 -2 -30 -7 -30 -13 0 -5
-9 -9 -20 -9 -26 0 -25 17 2 39 20 17 24 17 50 2 l28 -16 -30 -3z m464 -2
c-14 -14 -38 5 -30 26 6 16 8 16 23 1 11 -11 14 -20 7 -27z m-8104 26 c0 -3
-7 -12 -16 -20 -19 -20 -40 -11 -23 10 10 13 39 20 39 10z m965 -27 c0 -23
-42 -23 -54 0 -8 14 -8 21 2 24 19 6 52 -9 52 -24z m6195 17 c0 -19 -26 -38
-47 -34 -27 5 -22 31 7 39 37 10 40 10 40 -5z m-5210 -46 c-7 -16 -10 -44 -6
-60 5 -27 3 -30 -19 -30 -23 0 -25 4 -25 47 0 34 6 53 22 70 29 31 45 15 28
-27z m620 31 c0 -23 -16 -36 -25 -21 -9 14 1 40 15 40 5 0 10 -9 10 -19z
m2954 -16 c-8 -21 -33 -6 -27 16 4 15 9 17 19 8 7 -6 10 -17 8 -24z m636 -6
c6 -11 10 -37 8 -57 -2 -30 -7 -38 -27 -40 -22 -3 -23 -1 -18 28 4 20 1 42 -9
61 -8 16 -12 34 -9 39 8 14 42 -5 55 -31z m198 3 c13 -19 12 -22 -3 -28 -20
-8 -71 38 -61 55 9 14 47 -1 64 -27z m-7220 10 c2 -8 -9 -12 -32 -12 -43 0
-57 17 -19 23 37 5 46 3 51 -11z m2632 11 c-1 -16 -39 -53 -54 -53 -19 0 -20
13 -6 41 10 18 60 28 60 12z m340 -8 c0 -8 -5 -15 -11 -15 -7 0 -28 -17 -48
-37 -28 -28 -37 -33 -39 -21 -3 18 65 87 86 88 6 0 12 -7 12 -15z m3909 -26
c31 -27 41 -43 34 -50 -7 -7 -21 0 -45 25 -19 20 -40 36 -47 36 -12 0 -15 13
-4 23 10 11 16 8 62 -34z m2984 25 c1 -5 -17 -10 -40 -12 -33 -2 -42 0 -37 11
5 15 72 16 77 1z m-9475 -27 c16 -46 15 -57 -7 -57 -20 0 -31 18 -31 54 0 46
22 48 38 3z m762 23 c0 -5 -4 -10 -10 -10 -5 0 -10 5 -10 10 0 6 5 10 10 10 6
0 10 -4 10 -10z m8283 -4 c9 -23 -8 -71 -26 -74 -20 -4 -23 25 -5 63 13 28 23
32 31 11z m-9769 -66 c-14 -14 -41 -3 -47 20 -7 26 14 31 38 9 13 -13 16 -22
9 -29z m1801 31 c3 -11 19 -22 35 -26 32 -7 39 -22 15 -32 -9 -3 -24 2 -35 12
-14 12 -27 15 -47 11 -52 -13 -78 -12 -78 4 0 9 9 15 22 15 13 0 31 8 40 18
23 22 40 22 48 -2z m6905 4 c7 -8 21 -15 31 -15 23 0 35 -18 20 -33 -7 -7 -21
-7 -50 3 -34 11 -42 10 -70 -6 -23 -14 -34 -15 -42 -7 -9 9 -3 15 25 27 20 8
36 22 36 30 0 20 34 21 50 1z m1600 1 c0 -17 -27 -29 -35 -16 -4 6 -3 15 0 20
9 15 35 12 35 -4z m197 -1 c6 -18 -25 -58 -38 -49 -13 8 -11 38 3 52 16 16 27
15 35 -3z m-9122 -5 c3 -5 1 -10 -4 -10 -6 0 -11 5 -11 10 0 6 2 10 4 10 3 0
8 -4 11 -10z m610 1 c3 -5 1 -12 -5 -16 -5 -3 -10 1 -10 9 0 18 6 21 15 7z
m1475 -5 c0 -17 -83 -51 -105 -43 -8 4 -15 13 -15 21 0 9 6 13 13 10 7 -2 29
2 48 10 43 19 59 20 59 2z m78 -3 c-2 -10 -10 -18 -18 -18 -8 0 -16 8 -18 18
-2 12 3 17 18 17 15 0 20 -5 18 -17z m3406 8 c3 -5 -1 -15 -10 -22 -13 -10
-17 -10 -24 1 -5 8 -6 18 -4 22 7 11 31 10 38 -1z m130 -15 c32 -11 35 -15 22
-25 -25 -21 -125 16 -110 40 5 10 28 6 88 -15z m-5904 -12 c0 -14 -21 -19 -33
-8 -8 8 16 33 26 27 4 -2 7 -11 7 -19z m80 10 c0 -8 -4 -12 -10 -9 -5 3 -10
10 -10 16 0 5 5 9 10 9 6 0 10 -7 10 -16z m835 5 c9 -14 4 -18 -25 -21 -16 -2
-25 3 -28 15 -3 12 3 17 22 17 14 0 28 -5 31 -11z m582 -16 c-4 -20 1 -35 14
-49 20 -21 20 -21 -1 -27 -17 -4 -24 1 -31 23 -6 16 -17 31 -26 34 -24 9 -45
-14 -38 -41 5 -22 2 -23 -40 -23 -41 0 -45 2 -45 25 0 22 4 25 35 25 23 0 37
5 40 15 3 8 7 22 10 30 3 10 18 15 46 15 40 0 41 -1 36 -27z m93 13 c0 -8 -7
-16 -15 -20 -15 -5 -21 14 -8 27 11 12 23 8 23 -7z m917 8 c-3 -3 -12 -4 -19
-1 -8 3 -5 6 6 6 11 1 17 -2 13 -5z m3110 0 c-3 -3 -12 -4 -19 -1 -8 3 -5 6 6
6 11 1 17 -2 13 -5z m923 -9 c7 -9 10 -18 7 -22 -8 -7 -37 15 -37 28 0 14 16
11 30 -6z m157 -15 c9 -24 17 -30 42 -30 27 0 31 -3 31 -28 0 -26 -2 -27 -43
-24 -41 4 -43 5 -39 31 3 20 -1 30 -13 35 -19 7 -45 -9 -45 -29 0 -19 -23 -33
-43 -26 -17 6 -17 8 2 25 12 11 21 32 21 48 0 26 3 28 38 28 33 0 39 -4 49
-30z m543 17 c0 -20 -9 -25 -31 -20 -28 8 -24 33 6 33 14 0 25 -6 25 -13z
m800 -3 c0 -8 -5 -12 -10 -9 -6 4 -8 11 -5 16 9 14 15 11 15 -7z m-9572 -11
c-4 -21 -19 -26 -38 -13 -13 9 -13 11 0 20 23 15 42 12 38 -7z m9690 -2 c3 -8
-5 -11 -24 -9 -15 2 -29 8 -31 15 -3 8 6 11 23 9 16 -2 30 -9 32 -15z m1531 3
c3 -3 -1 -10 -7 -16 -7 -7 -12 -26 -12 -44 0 -35 -22 -51 -40 -29 -10 12 -6
76 7 98 4 7 42 0 52 -9z m-7865 -13 c3 -5 -1 -14 -8 -20 -16 -13 -32 2 -21 19
8 12 22 13 29 1z m4489 3 c3 -3 3 -12 0 -19 -6 -17 -33 -8 -33 11 0 14 21 19
33 8z m1942 -14 c17 -19 17 -20 -1 -26 -11 -4 -22 -9 -26 -11 -5 -2 -8 10 -8
26 0 36 10 39 35 11z m-8372 -14 c-4 -17 -10 -22 -24 -19 -24 7 -24 12 -1 29
25 19 30 17 25 -10z m541 1 c8 -13 7 -20 -4 -27 -35 -22 -65 5 -40 35 15 18
29 15 44 -8z m756 -19 c0 -20 -21 -48 -37 -48 -18 0 -53 28 -53 43 0 5 9 18
21 28 19 17 23 17 45 2 13 -8 24 -20 24 -25z m516 13 c-8 -13 -36 -15 -36 -3
0 4 5 13 12 20 14 14 34 0 24 -17z m5315 -35 c-21 -25 -51 -29 -72 -10 -26 24
-24 41 9 58 25 14 29 13 51 -9 20 -20 22 -26 12 -39z m723 13 c-7 -12 -35 -11
-54 1 -12 7 -11 12 5 30 l20 22 17 -22 c10 -12 15 -26 12 -31z m1337 27 c6
-55 3 -75 -13 -79 -37 -10 -66 55 -38 83 20 20 49 18 51 -4z m-9987 -5 c24
-27 4 -71 -34 -71 -24 0 -26 3 -23 33 8 63 24 74 57 38z m181 9 c3 -5 -1 -10
-9 -10 -9 0 -16 5 -16 10 0 6 4 10 9 10 6 0 13 -4 16 -10z m7169 4 c18 -7 12
-24 -10 -24 -8 0 -14 7 -14 15 0 17 2 18 24 9z m2431 -4 c-3 -5 -10 -10 -16
-10 -5 0 -9 5 -9 10 0 6 7 10 16 10 8 0 12 -4 9 -10z m-10382 -20 c3 -11 1
-18 -4 -14 -5 3 -9 12 -9 20 0 20 7 17 13 -6z m302 10 c27 0 39 -24 25 -48 -8
-15 -9 -14 -10 5 0 28 -17 38 -35 23 -12 -10 -18 -10 -30 0 -18 15 -9 34 12
26 8 -3 25 -6 38 -6z m577 -32 c-7 -7 -12 -20 -12 -30 0 -14 -8 -18 -35 -18
-19 0 -35 5 -35 10 0 6 5 10 10 10 6 0 20 16 32 36 19 32 22 34 36 20 13 -12
14 -18 4 -28z m437 33 c21 -13 5 -41 -23 -41 -14 0 -28 -4 -31 -10 -8 -13 -35
-13 -35 0 0 14 50 60 64 60 6 0 17 -4 25 -9z m1050 0 c19 -12 6 -43 -16 -39
-21 4 -31 48 -11 48 7 0 19 -4 27 -9z m6446 -17 c0 -22 -34 -32 -46 -12 -13
19 -11 26 9 31 27 7 37 2 37 -19z m769 -35 c-27 -28 -54 -38 -54 -20 0 13 26
32 34 24 4 -4 4 0 1 9 -4 10 2 22 17 32 21 15 23 15 26 0 2 -9 -9 -29 -24 -45z
m308 32 c29 -26 31 -30 15 -37 -10 -3 -23 -2 -30 5 -6 6 -21 11 -34 11 -27 0
-42 28 -22 41 23 14 37 10 71 -20z m398 14 c0 -8 14 -28 31 -45 l32 -30 -39 0
c-36 0 -40 3 -50 35 -7 24 -8 37 0 45 14 14 26 12 26 -5z m610 7 c0 -19 -23
-31 -42 -21 -24 13 -37 4 -31 -21 6 -24 -12 -27 -21 -4 -9 23 10 42 47 47 18
2 35 5 40 5 4 1 7 -2 7 -6z m-11034 -17 c10 -25 -3 -44 -25 -38 -23 6 -29 38
-8 46 21 9 27 7 33 -8z m341 1 c1 -1 0 -12 -4 -24 -6 -26 -29 -28 -55 -5 -32
28 -23 45 20 37 20 -4 38 -7 39 -8z m785 -13 c21 -18 24 -53 6 -53 -13 1 -88
65 -88 76 0 12 64 -6 82 -23z m597 -5 c28 -30 32 -48 11 -48 -12 0 -56 44 -63
64 -11 28 20 18 52 -16z m8641 24 c0 -12 -76 -72 -90 -72 -7 0 -9 7 -6 16 3 9
6 20 6 25 0 10 56 38 78 39 6 0 12 -4 12 -8z m786 -4 c9 -14 -31 -48 -57 -48
-29 0 -26 47 4 53 40 8 46 7 53 -5z m295 2 c25 -14 25 -36 0 -43 -25 -6 -31 0
-31 30 0 26 3 27 31 13z m-11330 -33 c-1 -12 -15 -9 -19 4 -3 6 1 10 8 8 6 -3
11 -8 11 -12z m1153 -3 c23 -22 20 -34 -8 -34 -28 0 -40 14 -32 35 7 19 21 19
40 -1z m327 6 c21 -12 26 -40 6 -40 -12 0 -47 34 -47 45 0 8 20 6 41 -5z m528
-2 c6 -7 30 -13 51 -13 55 0 45 -20 -10 -21 -47 -1 -70 9 -70 32 0 17 12 18
29 2z m559 0 c-5 -15 -48 -24 -48 -10 0 14 12 22 33 22 10 0 17 -5 15 -12z
m6092 -3 c0 -8 -6 -15 -14 -15 -7 0 -19 7 -26 15 -11 13 -8 15 14 15 16 0 26
-5 26 -15z m540 3 c0 -27 -17 -35 -68 -37 -39 0 -52 3 -49 12 2 6 20 12 40 12
20 0 41 6 48 13 7 6 17 12 21 12 4 0 8 -6 8 -12z m530 -13 c-25 -26 -50 -33
-50 -14 0 16 31 38 54 39 18 0 18 -2 -4 -25z m343 11 c8 -19 -17 -38 -43 -34
-19 3 -20 4 -5 26 18 25 40 29 48 8z m-8383 -5 c0 -12 -20 -25 -27 -18 -7 7 6
27 18 27 5 0 9 -4 9 -9z m610 -6 c0 -9 -9 -15 -25 -15 -24 0 -32 10 -18 23 12
13 43 7 43 -8z m6634 0 c4 -11 -2 -15 -24 -15 -20 0 -30 5 -30 15 0 9 9 15 24
15 13 0 26 -7 30 -15z m584 -4 c3 -8 -1 -12 -9 -9 -7 2 -15 10 -17 17 -3 8 1
12 9 9 7 -2 15 -10 17 -17z m1222 4 c0 -11 -10 -15 -37 -14 -22 1 -29 3 -18 6
11 3 24 9 30 14 14 14 25 11 25 -6z m-10221 -11 c2 -2 -15 -4 -38 -4 -25 0
-40 4 -36 10 5 8 63 3 74 -6z m870 -11 c2 -2 -5 -3 -17 -3 -14 0 -22 6 -22 16
0 14 3 15 18 3 9 -7 19 -15 21 -16z m7931 14 c22 3 40 1 44 -6 5 -8 -10 -11
-48 -11 -46 0 -56 3 -56 17 0 12 3 14 11 6 6 -6 28 -9 49 -6z m520 -2 c0 -9
-9 -15 -21 -15 -18 0 -19 2 -9 15 7 8 16 15 21 15 5 0 9 -7 9 -15z m664 -6
c-3 -5 -10 -7 -15 -3 -5 3 -7 10 -3 15 3 5 10 7 15 3 5 -3 7 -10 3 -15z
m-9804 7 c0 -3 -4 -8 -10 -11 -5 -3 -10 -1 -10 4 0 6 5 11 10 11 6 0 10 -2 10
-4z m1224 -8 c-3 -4 -28 -8 -55 -8 -29 0 -48 4 -44 9 3 6 28 9 55 9 27 -1 47
-5 44 -10z"/>
<path d="M1730 11885 c0 -8 2 -15 4 -15 2 0 6 7 10 15 3 8 1 15 -4 15 -6 0
-10 -7 -10 -15z"/>
</g>
</svg>
