<svg xmlns="http://www.w3.org/2000/svg" xmlns:xlink="http://www.w3.org/1999/xlink" viewBox="0,0,256,256" width="96px" height="96px" fill-rule="nonzero"><g transform="translate(38.4,38.4) scale(0.7,0.7)"><g fill-opacity="0.23922" fill="#dffc19" fill-rule="nonzero" stroke="none" stroke-width="1" stroke-linecap="butt" stroke-linejoin="miter" stroke-miterlimit="10" stroke-dasharray="" stroke-dashoffset="0" font-family="none" font-weight="none" font-size="none" text-anchor="none" style="mix-blend-mode: normal"><path d="M128,310.85714c-100.98921,0 -182.85714,-81.86793 -182.85714,-182.85714v0c0,-100.98921 81.86793,-182.85714 182.85714,-182.85714v0c100.98921,0 182.85714,81.86793 182.85714,182.85714v0c0,100.98921 -81.86793,182.85714 -182.85714,182.85714z" id="shape"></path></g><g fill="none" fill-rule="nonzero" stroke="none" stroke-width="1" stroke-linecap="butt" stroke-linejoin="miter" stroke-miterlimit="10" stroke-dasharray="" stroke-dashoffset="0" font-family="none" font-weight="none" font-size="none" text-anchor="none" style="mix-blend-mode: normal"><g transform="scale(5.33333,5.33333)"><path d="M36,24v-20h-24v20h-8l20,20l20,-20z" fill="#fa5252"></path><path d="M25.46,23.744c0,-0.48 -0.134,-0.862 -0.399,-1.147c-0.267,-0.283 -0.72,-0.546 -1.358,-0.786c-0.638,-0.24 -1.189,-0.479 -1.652,-0.716c-0.463,-0.238 -0.86,-0.51 -1.191,-0.818c-0.331,-0.307 -0.589,-0.669 -0.773,-1.085c-0.184,-0.416 -0.277,-0.911 -0.277,-1.485c0,-0.99 0.316,-1.802 0.949,-2.435c0.633,-0.633 1.474,-1.002 2.522,-1.107v-1.881h1.406v1.907c1.037,0.146 1.849,0.579 2.435,1.297c0.586,0.718 0.878,1.647 0.878,2.789h-2.54c0,-0.703 -0.146,-1.229 -0.435,-1.577c-0.291,-0.349 -0.679,-0.523 -1.165,-0.523c-0.48,0 -0.853,0.137 -1.116,0.408c-0.264,0.273 -0.396,0.649 -0.396,1.13c0,0.445 0.129,0.803 0.387,1.072c0.258,0.269 0.737,0.545 1.437,0.826c0.7,0.281 1.276,0.547 1.727,0.796c0.451,0.249 0.832,0.53 1.143,0.844c0.311,0.314 0.548,0.671 0.712,1.072c0.164,0.401 0.246,0.868 0.246,1.402c0,0.996 -0.311,1.805 -0.932,2.426c-0.621,0.621 -1.477,0.987 -2.566,1.099v1.748h-1.397v-1.74c-1.201,-0.129 -2.131,-0.555 -2.791,-1.278c-0.66,-0.723 -0.989,-1.687 -0.989,-2.888h2.54c0,0.697 0.166,1.232 0.497,1.604c0.331,0.372 0.807,0.558 1.428,0.558c0.516,0 0.923,-0.136 1.222,-0.409c0.299,-0.272 0.448,-0.64 0.448,-1.103z" fill="#ffffff"></path></g></g></g></svg>