<svg xmlns="http://www.w3.org/2000/svg"  viewBox="0 0 48 48" width="48px" height="48px"><path d="M 5.5195312 4 C 3.6032946 4 2.0195314 5.5837634 2.0195312 7.5 L 2.0195312 15.5 C 2.0195312 17.416237 3.6032946 19 5.5195312 19 L 13.019531 19 L 19.628906 23.720703 A 1.50015 1.50015 0 0 0 22 22.5 L 22 7.5 C 22 5.5837634 20.416237 4 18.5 4 L 5.5195312 4 z M 24 4 C 23.58 4 23.16 4.0107813 22.75 4.0507812 C 22.79 4.0807813 22.810312 4.110625 22.820312 4.140625 C 23.450312 4.940625 23.859219 5.92 23.949219 7 L 24 7 C 24.07 7 24.150703 6.9997656 24.220703 7.0097656 C 26.490703 7.2197656 28.890625 10.63 30.140625 16 L 24 16 L 24 19 L 30.679688 19 C 30.799688 19.96 30.899219 20.96 30.949219 22 L 33.949219 22 C 33.899219 20.97 33.819453 19.97 33.689453 19 L 40.25 19 C 40.54 19.97 40.760859 20.97 40.880859 22 L 42.5 22 C 42.99 22 43.469922 22.059453 43.919922 22.189453 C 42.999922 11.999453 34.42 4 24 4 z M 5.5195312 7 L 18.5 7 C 18.789763 7 19 7.2102366 19 7.5 L 19 19.585938 L 14.371094 16.279297 A 1.50015 1.50015 0 0 0 13.5 16 L 5.5195312 16 C 5.229768 16 5.0195313 15.789763 5.0195312 15.5 L 5.0195312 7.5 C 5.0195312 7.2102366 5.2297679 7 5.5195312 7 z M 30.179688 8.1699219 C 33.959688 9.6499219 37.090234 12.45 38.990234 16 L 33.199219 16 C 32.529219 12.89 31.489688 10.199922 30.179688 8.1699219 z M 4.25 20.849609 C 4.08 21.869609 4 22.93 4 24 C 4 34.9 12.749609 43.780234 23.599609 43.990234 C 23.729609 43.990234 23.87 44 24 44 C 24.06 44 24.119687 44.000234 24.179688 43.990234 C 24.239687 44.000234 24.299375 44.000234 24.359375 43.990234 L 24.349609 43.980469 C 24.139609 43.530469 24.019531 43.02 24.019531 42.5 L 24.019531 41 L 24 41 C 23.93 41 23.849297 41.000234 23.779297 40.990234 C 21.509297 40.780234 19.109141 37.37 17.869141 32 L 24 32 L 24 29 L 17.320312 29 C 17.120313 27.54 17.01 25.970312 17 24.320312 L 14.039062 22.199219 C 14.009063 22.789219 14 23.39 14 24 C 14 25.73 14.110781 27.41 14.300781 29 L 7.7558594 29 C 7.2675882 27.418123 7 25.740101 7 24 C 7 22.98 7.0892969 21.97 7.2792969 21 L 5.5 21 C 5.07 21 4.65 20.949609 4.25 20.849609 z M 29.5 24 C 27.583763 24 26 25.583763 26 27.5 L 26 42.5 A 1.50015 1.50015 0 0 0 28.371094 43.720703 L 34.980469 39 L 42.5 39 C 44.416237 39 46 37.416237 46 35.5 L 46 27.5 C 46 25.583763 44.416237 24 42.5 24 L 29.5 24 z M 29.5 27 L 42.5 27 C 42.789763 27 43 27.210237 43 27.5 L 43 35.5 C 43 35.789763 42.789763 36 42.5 36 L 34.5 36 A 1.50015 1.50015 0 0 0 33.628906 36.279297 L 29 39.585938 L 29 27.5 C 29 27.210237 29.210237 27 29.5 27 z M 9.0175781 32 L 14.810547 32 C 15.470547 35.11 16.510547 37.790078 17.810547 39.830078 C 14.033701 38.348025 10.919635 35.544954 9.0175781 32 z"/></svg>