<svg xmlns="http://www.w3.org/2000/svg" xmlns:xlink="http://www.w3.org/1999/xlink" viewBox="0,0,256,256" width="96px" height="96px" fill-rule="nonzero"><g transform="translate(38.4,38.4) scale(0.7,0.7)"><g fill-opacity="0.2902" fill="#33f0e5" fill-rule="nonzero" stroke="none" stroke-width="1" stroke-linecap="butt" stroke-linejoin="miter" stroke-miterlimit="10" stroke-dasharray="" stroke-dashoffset="0" font-family="none" font-weight="none" font-size="none" text-anchor="none" style="mix-blend-mode: normal"><path d="M128,310.85714c-100.98921,0 -182.85714,-81.86793 -182.85714,-182.85714v0c0,-100.98921 81.86793,-182.85714 182.85714,-182.85714v0c100.98921,0 182.85714,81.86793 182.85714,182.85714v0c0,100.98921 -81.86793,182.85714 -182.85714,182.85714z" id="shape"></path></g><g fill="none" fill-rule="nonzero" stroke="none" stroke-width="1" stroke-linecap="butt" stroke-linejoin="miter" stroke-miterlimit="10" stroke-dasharray="" stroke-dashoffset="0" font-family="none" font-weight="none" font-size="none" text-anchor="none" style="mix-blend-mode: normal"><g transform="scale(5.33333,5.33333)"><path d="M21,42.222c0,3.778 -3.825,3.778 -8.5,3.778c-4.675,0 -8.5,0 -8.5,-3.778c0,-3.778 3.825,-8.5 8.5,-8.5c4.675,0 8.5,4.722 8.5,8.5z" fill="#43a047"></path><path d="M15.333,29.756c-0.897,0.992 -0.472,-2.078 -2.361,0c-0.897,0.992 -0.472,-2.078 -2.361,0c-0.803,0.897 -0.567,-1.464 -1.842,-0.519l1.369,4.958h4.722l1.418,-5.195c-0.236,0.094 -0.52,0.283 -0.945,0.756z" fill="#43a047"></path><path d="M13.208,41.608c0,-0.236 -0.047,-0.425 -0.189,-0.519c-0.142,-0.142 -0.331,-0.236 -0.661,-0.378c-0.283,-0.094 -0.567,-0.236 -0.803,-0.331c-0.236,-0.094 -0.425,-0.236 -0.567,-0.378c-0.142,-0.142 -0.283,-0.331 -0.378,-0.519c-0.095,-0.188 -0.142,-0.425 -0.142,-0.708c0,-0.472 0.142,-0.85 0.425,-1.133c0.283,-0.283 0.708,-0.472 1.181,-0.519v-0.897h0.661v0.897c0.472,0.047 0.85,0.283 1.133,0.614c0.283,0.331 0.425,0.756 0.425,1.322h-1.181c0,-0.331 -0.047,-0.567 -0.189,-0.756c-0.142,-0.189 -0.331,-0.236 -0.567,-0.236c-0.236,0 -0.425,0.047 -0.519,0.189c-0.142,0.142 -0.189,0.283 -0.189,0.519c0,0.189 0.047,0.378 0.189,0.519c0.142,0.141 0.331,0.236 0.661,0.378c0.33,0.142 0.614,0.236 0.803,0.378c0.236,0.094 0.378,0.236 0.519,0.378c0.142,0.142 0.236,0.331 0.331,0.519c0.094,0.189 0.094,0.425 0.094,0.661c0,0.472 -0.142,0.85 -0.425,1.133c-0.283,0.283 -0.708,0.472 -1.228,0.519v0.85h-0.661v-0.803c-0.567,-0.047 -0.992,-0.283 -1.322,-0.614c-0.331,-0.331 -0.472,-0.803 -0.472,-1.369h1.181c0,0.331 0.094,0.567 0.236,0.756c0.142,0.189 0.378,0.283 0.661,0.283c0.236,0 0.425,-0.047 0.567,-0.189c0.332,-0.141 0.426,-0.33 0.426,-0.566z" fill="#ffffff"></path><path d="M44,42.222c0,3.778 -3.825,3.778 -8.5,3.778c-4.675,0 -8.5,0 -8.5,-3.778c0,-3.778 3.825,-8.5 8.5,-8.5c4.675,0 8.5,4.722 8.5,8.5z" fill="#43a047"></path><path d="M38.333,29.756c-0.897,0.992 -0.472,-2.078 -2.361,0c-0.897,0.992 -0.472,-2.078 -2.361,0c-0.803,0.897 -0.567,-1.464 -1.842,-0.519l1.369,4.958h4.722l1.418,-5.195c-0.236,0.094 -0.52,0.283 -0.945,0.756z" fill="#43a047"></path><path d="M36.208,41.608c0,-0.236 -0.047,-0.425 -0.189,-0.519c-0.142,-0.142 -0.331,-0.236 -0.661,-0.378c-0.283,-0.094 -0.567,-0.236 -0.803,-0.331c-0.236,-0.094 -0.425,-0.236 -0.567,-0.378c-0.142,-0.142 -0.283,-0.331 -0.378,-0.519c-0.095,-0.188 -0.142,-0.425 -0.142,-0.708c0,-0.472 0.142,-0.85 0.425,-1.133c0.283,-0.283 0.708,-0.472 1.181,-0.519v-0.897h0.661v0.897c0.472,0.047 0.85,0.283 1.133,0.614c0.283,0.331 0.425,0.756 0.425,1.322h-1.181c0,-0.331 -0.047,-0.567 -0.189,-0.756c-0.142,-0.189 -0.331,-0.236 -0.567,-0.236c-0.236,0 -0.425,0.047 -0.519,0.189c-0.142,0.142 -0.189,0.283 -0.189,0.519c0,0.189 0.047,0.378 0.189,0.519c0.142,0.142 0.331,0.236 0.661,0.378c0.33,0.142 0.614,0.236 0.803,0.378c0.236,0.094 0.378,0.236 0.519,0.378c0.142,0.142 0.236,0.331 0.331,0.519c0.094,0.189 0.094,0.425 0.094,0.661c0,0.472 -0.142,0.85 -0.425,1.133c-0.283,0.283 -0.708,0.472 -1.228,0.519v0.85h-0.661v-0.803c-0.567,-0.047 -0.992,-0.283 -1.322,-0.614c-0.331,-0.331 -0.472,-0.803 -0.472,-1.369h1.181c0,0.331 0.094,0.567 0.236,0.756c0.142,0.189 0.378,0.283 0.661,0.283c0.236,0 0.425,-0.047 0.567,-0.189c0.332,-0.141 0.426,-0.33 0.426,-0.566z" fill="#ffffff"></path><path d="M18.34,22.16l-1.6,1.6l-2.76,2.76l-0.8,0.8l-3.7,-1.11l2.1,-2.09l2.76,-2.77l0.78,-0.77l1.45,-1.46z" fill="#ffb74d"></path><path d="M25.98,15.258c-0.066,0.535 -0.394,1.742 -2.02,1.742c-1.623,0 -1.903,-1.203 -1.949,-1.74c-0.671,0.172 -1.309,0.424 -1.9,0.752c0.124,0.561 0.384,1.229 0.936,1.816c0.502,0.535 1.416,1.172 2.913,1.172c1.478,0 2.397,-0.621 2.908,-1.144c0.587,-0.598 0.867,-1.289 1.005,-1.854c-0.589,-0.326 -1.225,-0.574 -1.893,-0.744z" fill="#90caf9"></path><path d="M24,15c-0.601,0 -1.377,0.066 -2.24,0.319c-1.755,0.514 -2.916,1.52 -3.5,2.111l-1.69,1.69l-1.45,1.46l-0.78,0.77l-2.76,2.77l2.4,2.4l2.76,-2.76l0.78,-0.78l1.48,-1.48v10.5h10v-7c-0.667,-0.667 -1.333,-1.333 -2,-2c-1,-2.667 -2,-5.333 -3,-8z" fill="#455a64"></path><path d="M29.66,22.16l1.6,1.6l2.76,2.76l0.8,0.8l3.7,-1.11l-2.1,-2.09l-2.76,-2.77l-0.78,-0.77l-1.45,-1.46z" fill="#ffb74d"></path><path d="M24,15c1.084,-0.02 2.24,0.319 2.24,0.319c1.345,0.393 2.544,1.13 3.5,2.111l1.69,1.69l1.45,1.46l0.78,0.77l2.76,2.77l-2.4,2.4l-2.76,-2.76l-0.78,-0.78l-1.48,-1.48v10.5h-10v-7c0.333,-1.667 0.667,-3.333 1,-5c-2.951,2.737 -3.805,3.17 -4,3c-0.602,-0.522 3.702,-7.92 8,-8z" fill="#455a64"></path><path d="M26.98,15.58l-1.82,6.37l-1.16,4.05l-1.16,-4.05l-1.82,-6.37c0.92,-0.37 1.92,-0.58 2.98,-0.58c1.06,0 2.06,0.21 2.98,0.58z" fill="#e3f2fd"></path><path d="M26,27h-4c0.28,-1.68 0.56,-3.37 0.84,-5.05l1.16,4.05l1.16,-4.05c0.28,1.68 0.56,3.37 0.84,5.05z" fill="#455a64"></path><path d="M25.16,21.95l-1.16,4.05l-1.16,-4.05c0.39,-2.32 0.77,-4.63 1.16,-6.95c0.39,2.32 0.77,4.63 1.16,6.95z" fill="#37474f"></path><rect x="22" y="12" width="4" height="3.5" fill="#ff9800"></rect><path d="M23.999,14.004c-2.758,0 -4.999,-2.243 -4.999,-5c0,-2.757 2.242,-5 4.999,-5c2.757,0 4.999,2.243 4.999,5c0,2.757 -2.241,5 -4.999,5" fill="#ffb74d"></path><path d="M23.782,2.004c-2.438,0.219 -4.781,1.93 -4.781,5.574v1.426l1,1v-3l6.309,-2.201l1.69,2.201v3l1,-1v-1.202c0,-2.414 -0.135,-4.206 -3,-4.798l-0.485,-1z" fill="#424242"></path><path d="M25.952,17l-1.952,-1.5l1.952,-1.503c0,0 0.548,0.503 0.548,1.503c0,1 -0.548,1.5 -0.548,1.5z" fill="#37474f"></path><path d="M21.5,15.5c0,-1 0.548,-1.503 0.548,-1.503l1.952,1.503l-1.952,1.5c0,0 -0.548,-0.5 -0.548,-1.5z" fill="#37474f"></path><path d="M29,31c0,0.333 0,0.667 0,1c-0.353,4.667 -0.707,9.333 -1.06,14h-7.88c-0.353,-4.667 -0.707,-9.333 -1.06,-14c0,-0.333 0,-0.667 0,-1z" fill="#37474f"></path></g></g></g></svg>