<svg xmlns="http://www.w3.org/2000/svg"  viewBox="0 0 64 64" width="64px" height="64px" baseProfile="basic"><ellipse cx="32" cy="61" opacity=".3" rx="19" ry="3"/><path fill="#37d0ee" d="M25.5,56C15.299,56,7,47.701,7,37.5S15.299,19,25.5,19S44,27.299,44,37.5S35.701,56,25.5,56z M25.5,25C18.607,25,13,30.607,13,37.5S18.607,50,25.5,50S38,44.393,38,37.5S32.393,25,25.5,25z"/><path fill="#37d0ee" d="M52,15H39c-1.657,0-3-1.343-3-3s1.343-3,3-3h13c1.657,0,3,1.343,3,3S53.657,15,52,15z"/><path fill="#37d0ee" d="M52,28c-1.657,0-3-1.343-3-3V12c0-1.657,1.343-3,3-3s3,1.343,3,3v13C55,26.657,53.657,28,52,28z"/><path fill="none" stroke="#fff" stroke-linecap="round" stroke-linejoin="round" stroke-miterlimit="10" stroke-width="3" d="M13.5,28.51c1.327-1.767,3.035-3.233,5-4.274"/><path d="M43.312,32.569C40.879,32.907,39,34.974,39,37.5C39,44.944,32.944,51,25.5,51 c-2.526,0-4.593,1.88-4.931,4.312C22.142,55.748,23.79,56,25.5,56C35.701,56,44,47.701,44,37.5 C44,35.79,43.748,34.142,43.312,32.569z" opacity=".15"/><path fill="#fff" d="M25.5,24c2.526,0,4.593-1.88,4.931-4.312C28.858,19.252,27.21,19,25.5,19 C15.299,19,7,27.299,7,37.5c0,1.71,0.252,3.358,0.688,4.931C10.121,42.093,12,40.026,12,37.5C12,30.056,18.056,24,25.5,24z" opacity=".3"/><g><path fill="#37d0ee" d="M37,30c-0.768,0-1.536-0.293-2.121-0.879c-1.172-1.171-1.172-3.071,0-4.242l15-15 c1.171-1.172,3.071-1.172,4.242,0c1.172,1.171,1.172,3.071,0,4.242l-15,15C38.536,29.707,37.768,30,37,30z"/></g></svg>