<svg xmlns="http://www.w3.org/2000/svg"  viewBox="0 0 64 64" width="64px" height="64px" baseProfile="basic"><ellipse cx="32" cy="61" opacity=".3" rx="19" ry="3"/><path fill="#fd3c4f" d="M32,40c-10.201,0-18.5-8.299-18.5-18.5S21.799,3,32,3s18.5,8.299,18.5,18.5S42.201,40,32,40z M32,9 c-6.893,0-12.5,5.607-12.5,12.5S25.107,34,32,34s12.5-5.607,12.5-12.5S38.893,9,32,9z"/><path fill="#fd3c4f" d="M32,56c-1.657,0-3-1.343-3-3V37c0-1.657,1.343-3,3-3s3,1.343,3,3v16C35,54.657,33.657,56,32,56z"/><path fill="#fd3c4f" d="M40,50H24c-1.657,0-3-1.343-3-3s1.343-3,3-3h16c1.657,0,3,1.343,3,3S41.657,50,40,50z"/><path fill="none" stroke="#fff" stroke-linecap="round" stroke-linejoin="round" stroke-miterlimit="10" stroke-width="3" d="M20,12.51c1.327-1.767,3.035-3.233,5-4.274"/><path d="M49.812,16.569C47.379,16.907,45.5,18.974,45.5,21.5C45.5,28.944,39.444,35,32,35 c-2.526,0-4.593,1.88-4.931,4.312C28.642,39.748,30.29,40,32,40c10.201,0,18.5-8.299,18.5-18.5 C50.5,19.79,50.248,18.142,49.812,16.569z" opacity=".15"/><path fill="#fff" d="M32,8c2.526,0,4.593-1.88,4.931-4.312C35.358,3.252,33.71,3,32,3 c-10.201,0-18.5,8.299-18.5,18.5c0,1.71,0.252,3.358,0.688,4.931c2.433-0.338,4.312-2.405,4.312-4.931C18.5,14.056,24.556,8,32,8z" opacity=".3"/></svg>