<svg xmlns="http://www.w3.org/2000/svg" xmlns:xlink="http://www.w3.org/1999/xlink" viewBox="0,0,256,256" width="50px" height="50px" fill-rule="nonzero"><g transform="translate(38.4,38.4) scale(0.7,0.7)"><g fill="#fcc419" fill-rule="nonzero" stroke="none" stroke-width="1" stroke-linecap="butt" stroke-linejoin="miter" stroke-miterlimit="10" stroke-dasharray="" stroke-dashoffset="0" font-family="none" font-weight="none" font-size="none" text-anchor="none" style="mix-blend-mode: normal"><g transform="scale(5.12,5.12)"><path d="M25,2c-12.682,0 -23,10.318 -23,23c0,12.682 10.318,23 23,23c3.658,0 7.11545,-0.86267 10.18945,-2.38867c-0.825,-1.505 -1.18945,-3.15783 -1.18945,-4.54883v-2h6.22656c-3.239,-1.639 -5.02734,-3.93747 -5.02734,-6.73047c0,-2.358 1.33678,-5.63166 4.80078,-6.84766v-2.48437h6v2.50391c0.735,0.268 1.38341,0.62664 1.94141,1.05664c0.035,-0.516 0.05859,-1.03555 0.05859,-1.56055c0,-12.682 -10.318,-23 -23,-23zM25,7c0.552,0 1,0.448 1,1v14.18359c1.163,0.413 2,1.51241 2,2.81641c0,1.657 -1.343,3 -3,3c-0.462,0 -0.89416,-0.11378 -1.28516,-0.30078l-6.00781,6.00781c-0.195,0.195 -0.45103,0.29297 -0.70703,0.29297c-0.256,0 -0.51203,-0.09797 -0.70703,-0.29297c-0.391,-0.391 -0.391,-1.02306 0,-1.41406l6.00781,-6.00781c-0.187,-0.391 -0.30078,-0.82316 -0.30078,-1.28516c0,-1.304 0.837,-2.40341 2,-2.81641v-14.18359c0,-0.552 0.448,-1 1,-1zM42,25v2.12695c-2.08291,0.29678 -3.43801,1.40659 -4.07422,2.55469c-0.73699,1.32997 -0.72656,2.64844 -0.72656,2.64844c0,1.78763 0.91281,3.15764 2.0957,4.02734c1.1829,0.8697 2.60897,1.3734 3.95898,1.87109c1.35001,0.49769 2.62469,0.98838 3.4668,1.60742c0.84211,0.61904 1.2793,1.233 1.2793,2.41406c0,0 -0.0064,0.90878 -0.5957,1.8418c-0.58927,0.93302 -1.66819,1.9082 -4.4043,1.9082c-2.67011,0 -3.72842,-1.17492 -4.35742,-2.41992c-0.629,-1.245 -0.64258,-2.51758 -0.64258,-2.51758h-2c0,0 -0.01358,1.69593 0.85742,3.41992c0.77388,1.53177 2.45551,3.04599 5.14258,3.38086v2.13672h2v-2.10937c2.62656,-0.2662 4.28842,-1.45422 5.0957,-2.73242c0.91073,-1.44198 0.9043,-2.9082 0.9043,-2.9082c0,-1.78743 -0.91281,-3.15584 -2.0957,-4.02539c-1.18289,-0.86955 -2.609,-1.37341 -3.95898,-1.87109c-1.34999,-0.49768 -2.62274,-0.98828 -3.46484,-1.60742c-0.8421,-0.61914 -1.28125,-1.23465 -1.28125,-2.41602c0,0 0.0116,-0.84416 0.47461,-1.67969c0.46301,-0.83553 1.22694,-1.65039 3.32617,-1.65039c2.16667,0 2.97473,0.93578 3.48047,1.94727c0.50574,1.01149 0.51953,2.05273 0.51953,2.05273h2c0,0 0.01379,-1.45875 -0.73047,-2.94727c-0.64704,-1.29407 -2.0627,-2.58115 -4.26953,-2.91211v-2.14062z"></path></g></g></g></svg>