<svg xmlns="http://www.w3.org/2000/svg" xmlns:xlink="http://www.w3.org/1999/xlink" viewBox="0,0,256,256" width="80px" height="80px" fill-rule="nonzero"><g transform="translate(38.4,38.4) scale(0.7,0.7)"><g fill-opacity="0.23922" fill="#dffc19" fill-rule="nonzero" stroke="none" stroke-width="1" stroke-linecap="butt" stroke-linejoin="miter" stroke-miterlimit="10" stroke-dasharray="" stroke-dashoffset="0" font-family="none" font-weight="none" font-size="none" text-anchor="none" style="mix-blend-mode: normal"><path d="M128,310.85714c-100.98921,0 -182.85714,-81.86793 -182.85714,-182.85714v0c0,-100.98921 81.86793,-182.85714 182.85714,-182.85714v0c100.98921,0 182.85714,81.86793 182.85714,182.85714v0c0,100.98921 -81.86793,182.85714 -182.85714,182.85714z" id="shape"></path></g><g fill="#fa5252" fill-rule="nonzero" stroke="none" stroke-width="1" stroke-linecap="butt" stroke-linejoin="miter" stroke-miterlimit="10" stroke-dasharray="" stroke-dashoffset="0" font-family="none" font-weight="none" font-size="none" text-anchor="none" style="mix-blend-mode: normal"><g transform="scale(4,4)"><path d="M27.2314,50.36l-1.7314,2.078l-1.7314,-2.078c-0.19617,-0.21776 -0.47551,-0.34208 -0.7686,-0.34208c-0.29309,0 -0.57243,0.12432 -0.7686,0.34208l-1.7314,2.078l-1.7314,-2.078c-0.19617,-0.21776 -0.47551,-0.34208 -0.7686,-0.34208c-0.29309,0 -0.57243,0.12432 -0.7686,0.34208l-1.7314,2.078l-1.5,-1.8v-42.638c0.00097,-1.47665 -0.54444,-2.90145 -1.5312,-4h30.5312c2.20818,0.00231 3.99769,1.79182 4,4c0,0.55228 0.44772,1 1,1c0.55228,0 1,-0.44772 1,-1c-0.00364,-3.3122 -2.6878,-5.99636 -6,-6h-35c-3.3122,0.00364 -5.99636,2.6878 -6,6v11c0.00006,0.2338 0.08193,0.46022 0.2314,0.64l2.5,3c0.19617,0.21776 0.47551,0.34208 0.7686,0.34208c0.29309,0 0.57243,-0.12432 0.7686,-0.34208l1.7314,-2.078l1.7314,2.078c0.19013,0.22804 0.4717,0.35988 0.7686,0.35988c0.2969,0 0.57847,-0.13184 0.7686,-0.35988l0.7314,-0.8776v29.2376c0.00006,0.2338 0.08193,0.46022 0.2314,0.64l2.5,3c0.19617,0.21776 0.47551,0.34208 0.7686,0.34208c0.29309,0 0.57243,-0.12432 0.7686,-0.34208l1.7314,-2.078l1.7314,2.078c0.19617,0.21776 0.47551,0.34208 0.7686,0.34208c0.29309,0 0.57243,-0.12432 0.7686,-0.34208l1.7314,-2.078l1.7314,2.078c0.19013,0.22804 0.4717,0.35988 0.7686,0.35988c0.2969,0 0.57847,-0.13184 0.7686,-0.35988l2.5,-3c0.35346,-0.42449 0.29589,-1.05514 -0.1286,-1.4086c-0.42449,-0.35346 -1.05514,-0.29589 -1.4086,0.1286zM10.5,20.438l-1.7314,-2.078c-0.19617,-0.21776 -0.47551,-0.34208 -0.7686,-0.34208c-0.29309,0 -0.57243,0.12432 -0.7686,0.34208l-1.7314,2.078l-1.5,-1.8v-10.638c0,-2.20914 1.79086,-4 4,-4c2.20914,0 4,1.79086 4,4v10.6376zM25,24c0,-0.55228 0.44772,-1 1,-1h7c0.55228,0 1,0.44772 1,1c0,0.55228 -0.44772,1 -1,1h-7c-0.55228,0 -1,-0.44772 -1,-1zM25,30c0,-0.55228 0.44772,-1 1,-1h9c0.55228,0 1,0.44772 1,1c0,0.55228 -0.44772,1 -1,1h-9c-0.55228,0 -1,-0.44772 -1,-1zM41,13h-15c-0.55228,0 -1,-0.44772 -1,-1c0,-0.55228 0.44772,-1 1,-1h15c0.55228,0 1,0.44772 1,1c0,0.55228 -0.44772,1 -1,1zM36,18c0,0.55228 -0.44772,1 -1,1h-9c-0.55228,0 -1,-0.44772 -1,-1c0,-0.55228 0.44772,-1 1,-1h9c0.55228,0 1,0.44772 1,1zM23,30c0,0.55228 -0.44772,1 -1,1h-4c-0.55228,0 -1,-0.44772 -1,-1c0,-0.55228 0.44772,-1 1,-1h4c0.55228,0 1,0.44772 1,1zM30,36c0,0.55228 -0.44772,1 -1,1h-3c-0.55228,0 -1,-0.44772 -1,-1c0,-0.55228 0.44772,-1 1,-1h3c0.55228,0 1,0.44772 1,1zM26,43c-0.55228,0 -1,-0.44772 -1,-1c0,-0.55228 0.44772,-1 1,-1h1c0.55228,0 1,0.44772 1,1c0,0.55228 -0.44772,1 -1,1zM23,36c0,0.55228 -0.44772,1 -1,1h-4c-0.55228,0 -1,-0.44772 -1,-1c0,-0.55228 0.44772,-1 1,-1h4c0.55228,0 1,0.44772 1,1zM23,42c0,0.55228 -0.44772,1 -1,1h-4c-0.55228,0 -1,-0.44772 -1,-1c0,-0.55228 0.44772,-1 1,-1h4c0.55228,0 1,0.44772 1,1zM23,12c0,0.55228 -0.44772,1 -1,1h-4c-0.55228,0 -1,-0.44772 -1,-1c0,-0.55228 0.44772,-1 1,-1h4c0.55228,0 1,0.44772 1,1zM23,18c0,0.55228 -0.44772,1 -1,1h-4c-0.55228,0 -1,-0.44772 -1,-1c0,-0.55228 0.44772,-1 1,-1h4c0.55228,0 1,0.44772 1,1zM23,24c0,0.55228 -0.44772,1 -1,1h-4c-0.55228,0 -1,-0.44772 -1,-1c0,-0.55228 0.44772,-1 1,-1h4c0.55228,0 1,0.44772 1,1zM46.7744,11.3667l9,11c0.24425,0.29924 0.29444,0.71235 0.12895,1.06137c-0.16548,0.34902 -0.51708,0.57163 -0.90335,0.57193h-4v3c0,0.55228 -0.44772,1 -1,1c-0.55228,0 -1,-0.44772 -1,-1v-4c0,-0.55228 0.44772,-1 1,-1h2.89l-6.89,-8.4209l-6.89,8.4209h2.89c0.55228,0 1,0.44772 1,1v4c0,0.55228 -0.44772,1 -1,1c-0.55228,0 -1,-0.44772 -1,-1v-3h-4c-0.38627,-0.0003 -0.73787,-0.2229 -0.90335,-0.57193c-0.16548,-0.34902 -0.11529,-0.76213 0.12895,-1.06137l9,-11c0.19657,-0.22129 0.47841,-0.34791 0.7744,-0.34791c0.29599,0 0.57783,0.12663 0.7744,0.34791zM46,30c-8.83656,0 -16,7.16344 -16,16c0,8.83656 7.16344,16 16,16c8.83656,0 16,-7.16344 16,-16c-0.01008,-8.83238 -7.16762,-15.98992 -16,-16zM46,60c-7.73199,0 -14,-6.26801 -14,-14c0,-7.73199 6.26801,-14 14,-14c7.73199,0 14,6.26801 14,14c-0.00871,7.72838 -6.27162,13.99129 -14,14zM46,34c-6.62742,0 -12,5.37258 -12,12c0,6.62742 5.37258,12 12,12c6.62742,0 12,-5.37258 12,-12c-0.00738,-6.62436 -5.37564,-11.99262 -12,-12zM46,56c-5.52285,0 -10,-4.47715 -10,-10c0,-5.52285 4.47715,-10 10,-10c5.52285,0 10,4.47715 10,10c-0.00628,5.52024 -4.47976,9.99372 -10,10zM44,43.5c0.00094,0.82804 0.67196,1.49906 1.5,1.5h1c1.83575,-0.00587 3.36264,1.41057 3.49437,3.24159c0.13173,1.83102 -1.17668,3.45144 -2.99437,3.70841v1.05c0,0.55228 -0.44772,1 -1,1c-0.55228,0 -1,-0.44772 -1,-1v-1h-2c-0.55228,0 -1,-0.44772 -1,-1c0,-0.55228 0.44772,-1 1,-1h3.5c0.82843,0 1.5,-0.67157 1.5,-1.5c0,-0.82843 -0.67157,-1.5 -1.5,-1.5h-1c-1.83436,0.00398 -3.35914,-1.41195 -3.49077,-3.24158c-0.13164,-1.82964 1.17473,-3.44926 2.99077,-3.70792v-1.0505c0,-0.55228 0.44772,-1 1,-1c0.55228,0 1,0.44772 1,1v1h2c0.55228,0 1,0.44772 1,1c0,0.55228 -0.44772,1 -1,1h-3.5c-0.82804,0.00094 -1.49906,0.67196 -1.5,1.5z"></path></g></g></g></svg>