<svg xmlns="http://www.w3.org/2000/svg" xmlns:xlink="http://www.w3.org/1999/xlink" viewBox="0,0,256,256" width="64px" height="64px"><g transform="translate(58.88,58.88) scale(0.54,0.54)"><g fill-opacity="0.05882" fill="#fada5c" fill-rule="nonzero" stroke="none" stroke-width="1" stroke-linecap="butt" stroke-linejoin="miter" stroke-miterlimit="10" stroke-dasharray="" stroke-dashoffset="0" font-family="none" font-weight="none" font-size="none" text-anchor="none" style="mix-blend-mode: normal"><path d="M128,296.2963c-92.94748,0 -168.2963,-75.34882 -168.2963,-168.2963v0c0,-92.94748 75.34882,-168.2963 168.2963,-168.2963h0c92.94748,0 168.2963,75.34882 168.2963,168.2963v0c0,92.94748 -75.34882,168.2963 -168.2963,168.2963z" id="shape"></path></g><g fill="#4bc920" fill-rule="nonzero" stroke="none" stroke-width="1" stroke-linecap="butt" stroke-linejoin="miter" stroke-miterlimit="10" stroke-dasharray="" stroke-dashoffset="0" font-family="none" font-weight="none" font-size="none" text-anchor="none" style="mix-blend-mode: normal"><g transform="scale(5.12,5.12)"><path d="M12,0v28c-0.00391,0.35938 0.18359,0.69531 0.49609,0.87891c0.3125,0.17969 0.69531,0.17969 1.00781,0c0.3125,-0.18359 0.5,-0.51953 0.49609,-0.87891v-17.59375c0,-1.39844 0.57813,-1.91797 1.46875,-2.4375c0.44531,-0.26172 0.96484,-0.46484 1.46875,-0.6875c0.50391,-0.22266 1.01172,-0.41797 1.46875,-0.875c0.45703,-0.45703 0.66406,-0.98047 0.875,-1.5c0.21094,-0.51953 0.38281,-1.0625 0.59375,-1.53125c0.21094,-0.46875 0.46094,-0.83984 0.6875,-1.0625c0.22656,-0.22266 0.40625,-0.3125 0.75,-0.3125h7.375c0.34375,0 0.52344,0.08984 0.75,0.3125c0.22656,0.22266 0.47656,0.59375 0.6875,1.0625c0.21094,0.46875 0.38281,1.01172 0.59375,1.53125c0.21094,0.51953 0.41797,1.04297 0.875,1.5c0.45703,0.45703 0.96484,0.65234 1.46875,0.875c0.50391,0.22266 1.02344,0.42578 1.46875,0.6875c0.89063,0.51953 1.46875,1.03906 1.46875,2.4375v17.59375c-0.00391,0.35938 0.18359,0.69531 0.49609,0.87891c0.3125,0.17969 0.69531,0.17969 1.00781,0c0.3125,-0.18359 0.5,-0.51953 0.49609,-0.87891v-28zM14,2h4.34375c-0.10156,0.1875 -0.19531,0.375 -0.28125,0.5625c-0.26172,0.58203 -0.47266,1.14063 -0.65625,1.59375c-0.18359,0.45313 -0.36328,0.80078 -0.40625,0.84375c-0.04297,0.04297 -0.375,0.23047 -0.84375,0.4375c-0.46875,0.20703 -1.08203,0.46094 -1.6875,0.8125c-0.16016,0.09375 -0.30859,0.19531 -0.46875,0.3125zM31.65625,2h4.34375v4.5625c-0.16016,-0.11719 -0.30859,-0.21875 -0.46875,-0.3125c-0.60547,-0.35156 -1.21875,-0.60547 -1.6875,-0.8125c-0.46875,-0.20703 -0.80078,-0.39453 -0.84375,-0.4375c-0.04297,-0.04297 -0.22266,-0.39062 -0.40625,-0.84375c-0.18359,-0.45312 -0.39453,-1.01172 -0.65625,-1.59375c-0.08594,-0.1875 -0.17969,-0.375 -0.28125,-0.5625zM16,3c-0.55078,0 -1,0.44922 -1,1c0,0.55078 0.44922,1 1,1c0.55078,0 1,-0.44922 1,-1c0,-0.55078 -0.44922,-1 -1,-1zM34,3c-0.55078,0 -1,0.44922 -1,1c0,0.55078 0.44922,1 1,1c0.55078,0 1,-0.44922 1,-1c0,-0.55078 -0.44922,-1 -1,-1zM25,4c-2.19922,0 -4,1.80078 -4,4c0,2.19922 1.80078,4 4,4c2.19922,0 4,-1.80078 4,-4c0,-2.19922 -1.80078,-4 -4,-4zM25,6c1.11719,0 2,0.88281 2,2c0,1.11719 -0.88281,2 -2,2c-1.11719,0 -2,-0.88281 -2,-2c0,-1.11719 0.88281,-2 2,-2zM25,7c-0.55078,0 -1,0.44922 -1,1c0,0.55078 0.44922,1 1,1c0.55078,0 1,-0.44922 1,-1c0,-0.55078 -0.44922,-1 -1,-1zM39.84375,10.6875c-0.39453,0.04688 -0.71875,0.32422 -0.83594,0.70313c-0.11328,0.37891 0.00391,0.78906 0.30469,1.04688l7.71875,7.1875c0,0.01172 0,0.01953 0,0.03125c0.56641,0.49219 0.96875,1.35938 0.96875,2.15625v0.71875l-14.3125,11.25c-1.38281,-1.08594 -3.69531,-2.87891 -4,-3.125l-0.0625,-0.03125c-1.73047,-1.38281 -3.57812,-1.625 -4.625,-1.625c-1.12109,0 -2.89062,0.34375 -4.59375,1.59375l-0.03125,0.03125c-0.29297,0.23438 -2.65234,2.08203 -4.0625,3.1875l-14.3125,-11.28125v-0.71875c0,-0.97656 0.26953,-1.62891 0.96875,-2.25l7.6875,-6.8125c0.30469,-0.22266 0.45703,-0.59766 0.39453,-0.97266c-0.0625,-0.37109 -0.33203,-0.67578 -0.69141,-0.78906c-0.35937,-0.10937 -0.75391,-0.00781 -1.01562,0.26172l-7.71875,6.8125c-1.09766,0.97656 -1.625,2.32813 -1.625,3.75v27.1875c0,0.55078 0.44922,1 1,1h48c0.55078,0 1,-0.44922 1,-1v-27.1875c0,-1.39453 -0.63281,-2.71875 -1.65625,-3.625v-0.03125l-7.65625,-7.1875c-0.22266,-0.21875 -0.53516,-0.32422 -0.84375,-0.28125zM25,15c-4.88672,0 -9,3.57813 -9,8.09375c0,2.17969 0.96094,4.05469 2.40625,5.5c0.24219,0.29688 0.62891,0.43359 1.00391,0.34766c0.37109,-0.08594 0.66406,-0.37891 0.75,-0.75c0.08594,-0.375 -0.05078,-0.76172 -0.34766,-1.00391c-0.11328,-0.11328 -0.21094,-0.22656 -0.3125,-0.34375c0.29297,-0.17578 0.5,-0.48047 0.5,-0.84375c0,-0.55078 -0.44922,-1 -1,-1c-0.21094,0 -0.40234,0.07422 -0.5625,0.1875c-0.27734,-0.64453 -0.4375,-1.33203 -0.4375,-2.09375c0,-0.78906 0.17578,-1.55078 0.5,-2.25c0.14844,0.08984 0.3125,0.15625 0.5,0.15625c0.55078,0 1,-0.44922 1,-1c0,-0.31641 -0.14844,-0.59766 -0.375,-0.78125c0.52344,-0.55078 1.16016,-1.01172 1.875,-1.375c0.14844,0.08984 0.3125,0.15625 0.5,0.15625c0.44922,0 0.8125,-0.3125 0.9375,-0.71875c0.65234,-0.17578 1.33984,-0.28125 2.0625,-0.28125c0.72266,0 1.41016,0.10547 2.0625,0.28125c0.125,0.40625 0.48828,0.71875 0.9375,0.71875c0.1875,0 0.35156,-0.06641 0.5,-0.15625c0.71484,0.36328 1.35156,0.82422 1.875,1.375c-0.22656,0.18359 -0.375,0.46484 -0.375,0.78125c0,0.55078 0.44922,1 1,1c0.1875,0 0.35156,-0.06641 0.5,-0.15625c0.32422,0.69922 0.5,1.46094 0.5,2.25c0,0.71875 -0.15234,1.42578 -0.4375,2.09375c-0.16016,-0.11328 -0.35156,-0.1875 -0.5625,-0.1875c-0.55078,0 -1,0.44922 -1,1c0,0.36328 0.20703,0.66797 0.5,0.84375c-0.10156,0.11719 -0.20312,0.23438 -0.3125,0.34375c-0.29687,0.24219 -0.43359,0.62891 -0.34766,1.00391c0.08594,0.37109 0.37891,0.66406 0.75,0.75c0.375,0.08594 0.76172,-0.05078 1.00391,-0.34766c1.46484,-1.46484 2.40625,-3.40234 2.40625,-5.5c0,-4.51562 -4.11328,-8.09375 -9,-8.09375zM25,19c-0.55078,0 -1,0.44922 -1,1c0,0.55078 0.44922,1 1,1c0.55078,0 1,-0.44922 1,-1c0,-0.55078 -0.44922,-1 -1,-1zM22,22c-0.55078,0 -1,0.44922 -1,1c0,0.55078 0.44922,1 1,1c0.55078,0 1,-0.44922 1,-1c0,-0.55078 -0.44922,-1 -1,-1zM28,22c-0.55078,0 -1,0.44922 -1,1c0,0.55078 0.44922,1 1,1c0.55078,0 1,-0.44922 1,-1c0,-0.55078 -0.44922,-1 -1,-1zM25,25c-0.55078,0 -1,0.44922 -1,1c0,0.55078 0.44922,1 1,1c0.55078,0 1,-0.44922 1,-1c0,-0.55078 -0.44922,-1 -1,-1zM2,25.09375l12.6875,10c-5.27344,4.13281 -11.20703,8.77734 -12.6875,9.9375zM48,25.09375v19.9375c-1.48437,-1.16406 -7.42578,-5.83984 -12.6875,-9.96875zM25,31c0.75,0 2.10547,0.17188 3.375,1.1875c1.54688,1.23828 19.12109,14.98047 19.625,15.375v0.4375h-46v-0.4375c0.5,-0.39062 17.99219,-14.06641 19.59375,-15.34375c0.00391,-0.00391 0.02734,-0.02734 0.03125,-0.03125c1.28516,-0.92969 2.70313,-1.1875 3.375,-1.1875z"></path></g></g></g></svg>