<svg xmlns="http://www.w3.org/2000/svg"  viewBox="0 0 48 48" width="48px" height="48px" baseProfile="basic"><path fill="#fc9c9c" d="M24,32c-8.822,0-16-7.178-16-16S15.178,0,24,0s16,7.178,16,16c0,0-3,13-13.734,15.84	C25.526,31.945,24.769,32,24,32z M24,6c-5.514,0-10,4.486-10,10s4.486,10,10,10s10-4.486,10-10S29.514,6,24,6z"/><path fill="#fc9c9c" d="M25,48h-2c-1.105,0-2-0.895-2-2V29h6v17C27,47.105,26.105,48,25,48z"/><path fill="#fc9c9c" d="M30,43H18c-1.105,0-2-0.895-2-2v-2c0-1.105,0.895-2,2-2h12c1.105,0,2,0.895,2,2v2	C32,42.105,31.105,43,30,43z"/><path fill="#324561" d="M26,37c-0.553,0-1-0.447-1-1v-5.14c0-0.502,0.372-0.926,0.869-0.991C32.785,28.954,38,22.992,38,16	c0-0.553,0.447-1,1-1s1,0.447,1,1c0,7.695-5.529,14.301-13,15.712V36C27,36.553,26.553,37,26,37z"/><path fill="#324561" d="M26,47c-0.553,0-1-0.447-1-1v-4c0-0.553,0.447-1,1-1h4c0.553,0,1,0.447,1,1s-0.447,1-1,1h-3v3	C27,46.553,26.553,47,26,47z"/><path fill="#324561" d="M20,43h-2c-0.553,0-1-0.447-1-1s0.447-1,1-1h2c0.553,0,1,0.447,1,1S20.553,43,20,43z"/></svg>