<svg xmlns="http://www.w3.org/2000/svg" xmlns:xlink="http://www.w3.org/1999/xlink" viewBox="0,0,256,256" width="64px" height="64px"><g transform="translate(58.88,58.88) scale(0.54,0.54)"><g fill-opacity="0.05882" fill="#fada5c" fill-rule="nonzero" stroke="none" stroke-width="1" stroke-linecap="butt" stroke-linejoin="miter" stroke-miterlimit="10" stroke-dasharray="" stroke-dashoffset="0" font-family="none" font-weight="none" font-size="none" text-anchor="none" style="mix-blend-mode: normal"><path d="M128,296.2963c-92.94748,0 -168.2963,-75.34882 -168.2963,-168.2963v0c0,-92.94748 75.34882,-168.2963 168.2963,-168.2963h0c92.94748,0 168.2963,75.34882 168.2963,168.2963v0c0,92.94748 -75.34882,168.2963 -168.2963,168.2963z" id="shape"></path></g><g fill="#20c997" fill-rule="nonzero" stroke="none" stroke-width="1" stroke-linecap="butt" stroke-linejoin="miter" stroke-miterlimit="10" stroke-dasharray="" stroke-dashoffset="0" font-family="none" font-weight="none" font-size="none" text-anchor="none" style="mix-blend-mode: normal"><g transform="scale(5.12,5.12)"><path d="M21.93359,0.30664l-1.69727,1.05859l0.62109,0.99414c-0.79821,0.96774 -0.9312,2.3871 -0.17578,3.47656c0.46878,0.72946 1.32699,1.12849 2.01953,1.08984c0.69984,-0.03905 1.23352,-0.30644 1.69727,-0.50781c0.46375,-0.20138 0.85889,-0.33707 1.01367,-0.3457c0.15479,-0.00864 0.06166,-0.10327 0.23242,0.16992l0.01563,0.02539l0.01758,0.02344c0.31942,0.44872 0.18297,1.03546 -0.30078,1.29883l-0.05273,0.0293l-0.04883,0.03516c-0.44844,0.31962 -1.03385,0.18302 -1.29687,-0.30078l-1.75781,0.95703c0.64123,1.17947 1.99528,1.68986 3.22656,1.39258l0.61914,0.99023l1.69727,-1.05859l-0.62109,-0.99219c0.79977,-0.96776 0.9337,-2.38826 0.17773,-3.47852c-0.46878,-0.72946 -1.32699,-1.12849 -2.01953,-1.08984c-0.69984,0.03905 -1.23352,0.30644 -1.69727,0.50781c-0.46375,0.20137 -0.85889,0.33707 -1.01367,0.3457c-0.15479,0.00864 -0.06166,0.10327 -0.23242,-0.16992l-0.01562,-0.02539l-0.01758,-0.02344c-0.31942,-0.44872 -0.18297,-1.03546 0.30078,-1.29883l0.05273,-0.0293l0.04883,-0.03516c0.44843,-0.31962 1.03385,-0.18302 1.29688,0.30078l1.75781,-0.95703c-0.64165,-1.18025 -1.99659,-1.68922 -3.22852,-1.39063zM21.66797,1.6543c-0.01741,0.00948 -0.02584,0.02732 -0.04297,0.03711c-0.01834,0.01244 -0.04045,0.01246 -0.05859,0.02539zM10.18164,3.9043l-0.82813,0.82813c-1.12215,-0.561 -2.53313,-0.37237 -3.42578,0.60742c-0.60692,0.62122 -0.8029,1.54765 -0.60937,2.21484c0.19543,0.67374 0.57604,1.13444 0.87695,1.54102c0.30092,0.40658 0.52118,0.75962 0.56445,0.9082c0.04327,0.14858 0.1145,0.03589 -0.11328,0.26367l-0.02148,0.02148l-0.01953,0.02149c-0.36575,0.41223 -0.96628,0.41223 -1.33203,0l-0.04102,-0.04297l-0.04297,-0.04102c-0.41223,-0.36575 -0.41223,-0.96628 0,-1.33203l-1.32812,-1.49609c-1.00395,0.89075 -1.19525,2.32224 -0.62891,3.45508l-0.82812,0.82813l1.41406,1.41406l0.82813,-0.82812c1.12215,0.561 2.53313,0.37237 3.42578,-0.60742c0.60649,-0.62084 0.80153,-1.54837 0.60742,-2.21484c-0.19601,-0.67301 -0.57624,-1.13276 -0.87695,-1.53906c-0.30071,-0.4063 -0.52135,-0.75959 -0.56445,-0.9082c-0.04311,-0.14861 -0.11365,-0.03674 0.11523,-0.26562l0.02148,-0.02148l0.01953,-0.02148c0.36575,-0.41223 0.96628,-0.41223 1.33203,0l0.04102,0.04297l0.04297,0.04102c0.41223,0.36575 0.41223,0.96628 0,1.33203l1.32813,1.49609c1.00395,-0.89075 1.19525,-2.32224 0.62891,-3.45508l0.82813,-0.82812zM39.81836,3.9043l-1.41406,1.41406l0.82813,0.82813c-0.561,1.12215 -0.37237,2.53313 0.60742,3.42578c0.62104,0.60674 1.54757,0.80424 2.21484,0.61133c0.67382,-0.19481 1.13431,-0.57625 1.54102,-0.87695c0.40671,-0.3007 0.75894,-0.5209 0.9082,-0.56445c0.14926,-0.04356 0.03838,-0.11525 0.26563,0.11133l0.01953,0.02148l0.02148,0.01953c0.41223,0.36575 0.41223,0.96628 0,1.33203l-0.04297,0.04102l-0.04102,0.04297c-0.36575,0.41223 -0.96628,0.41223 -1.33203,0l-1.49609,1.32813c0.89075,1.00395 2.32224,1.19525 3.45508,0.62891l0.82813,0.82813l1.41406,-1.41406l-0.82812,-0.82812c0.56181,-1.12376 0.37208,-2.5373 -0.61133,-3.42969c-0.62134,-0.60267 -1.5463,-0.79551 -2.21094,-0.60156c-0.67233,0.19619 -1.1329,0.57665 -1.53906,0.87695c-0.40617,0.3003 -0.75772,0.51956 -0.90625,0.5625c-0.14853,0.04294 -0.03852,0.11382 -0.26758,-0.11523l-0.02148,-0.02148l-0.02148,-0.01953c-0.41223,-0.36575 -0.41223,-0.96628 0,-1.33203l0.04297,-0.04102l0.04102,-0.04297c0.36575,-0.41223 0.96628,-0.41223 1.33203,0l1.49609,-1.32812c-0.89076,-1.00395 -2.32224,-1.19525 -3.45508,-0.62891zM10.13867,5.27734l0.08398,0.08398c-0.01392,-0.01569 -0.03464,-0.01985 -0.04883,-0.03516c-0.01531,-0.01419 -0.01947,-0.03491 -0.03516,-0.04883zM39.86133,5.27734c-0.01569,0.01392 -0.01985,0.03464 -0.03516,0.04883c-0.01419,0.01531 -0.03491,0.01947 -0.04883,0.03516zM26.43555,9.2832l-0.10156,0.0625c0.01741,-0.00948 0.02585,-0.02732 0.04297,-0.03711c0.01834,-0.01244 0.04045,-0.01246 0.05859,-0.02539zM3.77734,11.63867c0.01392,0.01569 0.03464,0.01985 0.04883,0.03516c0.01531,0.01419 0.01947,0.03491 0.03516,0.04883zM46.22266,11.63867l-0.08398,0.08398c0.01569,-0.01392 0.01985,-0.03464 0.03516,-0.04883c0.01419,-0.01531 0.03491,-0.01947 0.04883,-0.03516zM24.5,12c-1.58333,0 -2.89811,0.62976 -3.74805,1.58594c-0.84994,0.95618 -1.25195,2.19184 -1.25195,3.41406c0,1.22222 0.40201,2.45788 1.25195,3.41406c0.84994,0.95618 2.16471,1.58594 3.74805,1.58594c1.58333,0 2.89811,-0.62976 3.74805,-1.58594c0.84994,-0.95618 1.25195,-2.19184 1.25195,-3.41406c0,-1.22222 -0.40201,-2.45788 -1.25195,-3.41406c-0.84994,-0.95618 -2.16471,-1.58594 -3.74805,-1.58594zM12.875,12.98633c-0.36764,0.02289 -0.72649,0.11132 -1.05859,0.25391c-0.6642,0.28517 -1.24959,0.79351 -1.58008,1.49805c-0.33,0.7035 -0.35637,1.59943 0.00391,2.44141c0.00053,0.0012 -0.00053,0.00271 0,0.00391l1.99219,4.97852c0.00375,0.00983 0.00766,0.01959 0.01172,0.0293c0.18318,0.41789 0.45871,0.78848 0.80469,1.08594l-0.06055,-0.05664l6.01172,6.10938v9.66992v7.5c0,1.08333 0.44226,2.02311 1.11719,2.62305c0.67493,0.59994 1.53559,0.87695 2.38281,0.87695c0.84722,0 1.70788,-0.27701 2.38281,-0.87695c0.04886,-0.04343 0.07085,-0.11715 0.11719,-0.16406c0.04634,0.04691 0.06833,0.12063 0.11719,0.16406c0.67493,0.59994 1.53559,0.87695 2.38281,0.87695c0.84722,0 1.70788,-0.27701 2.38281,-0.87695c0.67493,-0.59994 1.11719,-1.53971 1.11719,-2.62305v-7.5v-10.53906l5.02344,-5.25l-0.07227,0.06641c0.34598,-0.29746 0.6215,-0.66805 0.80469,-1.08594c0.00406,-0.0097 0.00797,-0.01947 0.01172,-0.0293l1.99219,-4.97852c0.00053,-0.0012 -0.00053,-0.00271 0,-0.00391c0.36029,-0.84198 0.33391,-1.7379 0.00391,-2.44141c-0.33049,-0.70454 -0.91588,-1.21288 -1.58008,-1.49805c-0.6642,-0.28517 -1.43345,-0.35693 -2.17187,-0.11133c-0.73843,0.2456 -1.40952,0.84444 -1.77148,1.6875c-0.00337,0.00842 -0.00663,0.01688 -0.00977,0.02539l-1.74414,4.4043l-3.34375,3.75391h-7.28516l-3.34375,-3.75391l-1.74414,-4.4043c-0.00314,-0.00851 -0.0064,-0.01697 -0.00976,-0.02539c-0.36196,-0.84306 -1.03306,-1.4419 -1.77149,-1.6875c-0.36921,-0.1228 -0.74564,-0.16546 -1.11328,-0.14258zM24.5,14c1.08333,0 1.76856,0.37024 2.25195,0.91406c0.48339,0.54382 0.74805,1.30816 0.74805,2.08594c0,0.77778 -0.26465,1.54212 -0.74805,2.08594c-0.48339,0.54382 -1.16862,0.91406 -2.25195,0.91406c-1.08333,0 -1.76856,-0.37024 -2.25195,-0.91406c-0.48339,-0.54382 -0.74805,-1.30816 -0.74805,-2.08594c0,-0.77778 0.26465,-1.54212 0.74805,-2.08594c0.48339,-0.54382 1.16862,-0.91406 2.25195,-0.91406zM12.99609,14.98438c0.12915,-0.00839 0.25388,0.00527 0.36133,0.04102c0.21417,0.07123 0.39822,0.19759 0.5625,0.57813l0.00195,0.00195l1.79883,4.54297c0.04332,0.10896 0.10547,0.20944 0.18359,0.29687l3.75977,4.2207c0.18977,0.21252 0.46118,0.33402 0.74609,0.33398h8.17969c0.28492,0.00003 0.55632,-0.12146 0.74609,-0.33398l3.75977,-4.2207c0.07813,-0.08743 0.14027,-0.18792 0.18359,-0.29687l1.79883,-4.54297l0.00195,-0.00195c0.16428,-0.38054 0.34833,-0.50689 0.5625,-0.57812c0.2149,-0.07148 0.49615,-0.05709 0.75195,0.05273c0.2558,0.10983 0.46241,0.30472 0.55859,0.50977c0.09618,0.20504 0.13345,0.42303 -0.03125,0.80664c-0.00335,0.00777 -0.00661,0.01558 -0.00977,0.02344l-1.98828,4.9707c-0.06292,0.14353 -0.15656,0.27088 -0.27539,0.37305c-0.02449,0.02099 -0.04796,0.04315 -0.07031,0.06641l-5.30078,5.54102c-0.17804,0.18615 -0.27738,0.43382 -0.27734,0.69141v10.93945v7.5c0,0.58333 -0.18274,0.89356 -0.44531,1.12695c-0.26257,0.23339 -0.65191,0.37305 -1.05469,0.37305c-0.40278,0 -0.79212,-0.13965 -1.05469,-0.37305c-0.26257,-0.23339 -0.44531,-0.54362 -0.44531,-1.12695v-8.5v-1c0.0037,-0.2703 -0.10218,-0.53059 -0.29351,-0.72155c-0.19133,-0.19097 -0.45182,-0.29634 -0.72212,-0.29212c-0.55152,0.00862 -0.99193,0.46214 -0.98437,1.01367v1v8.5c0,0.58333 -0.18274,0.89356 -0.44531,1.12695c-0.26257,0.23339 -0.65191,0.37305 -1.05469,0.37305c-0.40278,0 -0.79212,-0.13965 -1.05469,-0.37305c-0.26257,-0.23339 -0.44531,-0.54362 -0.44531,-1.12695v-7.5v-10.08008c-0.00004,-0.26233 -0.10315,-0.51415 -0.28711,-0.70117l-6.30078,-6.40039c-0.01939,-0.01971 -0.03959,-0.03861 -0.06055,-0.05664c-0.11883,-0.10217 -0.21247,-0.22952 -0.27539,-0.37305l-1.98828,-4.9707c-0.00316,-0.00785 -0.00641,-0.01567 -0.00977,-0.02344c-0.1647,-0.38361 -0.12743,-0.6016 -0.03125,-0.80664c0.09618,-0.20504 0.30279,-0.39994 0.55859,-0.50977c0.1279,-0.05491 0.26148,-0.08536 0.39063,-0.09375z"></path></g></g></g></svg>